TexturaLibera-ExLight-Cond.sfdir
StartChar: numbersign
Encoding: 35 35 3
Width: 560
Flags: W
HStem: -177 21G<13 44 173 204> 173 54<56 141 203 301 363 504> 373 54<56 216 278 376 438 504>
LayerCount: 2
Back
SplineSet
200 -150 m 25
 520 700 l 1049
40 -150 m 25
 360 700 l 1049
40 200 m 25
 520 200 l 1049
40 400 m 25
 520 400 l 1049
EndSplineSet
Fore
SplineSet
13 384 m 1
 56 427 l 1
 236 427 l 1
 333 684 l 1
 376 727 l 1
 387 716 l 1
 278 427 l 1
 396 427 l 1
 493 684 l 1
 536 727 l 1
 547 716 l 1
 438 427 l 1
 536 427 l 1
 547 416 l 1
 504 373 l 1
 418 373 l 1
 363 227 l 1
 536 227 l 1
 547 216 l 1
 504 173 l 1
 343 173 l 1
 227 -134 l 1
 184 -177 l 1
 173 -166 l 1
 301 173 l 1
 183 173 l 1
 67 -134 l 1
 24 -177 l 1
 13 -166 l 1
 141 173 l 1
 24 173 l 1
 13 184 l 1
 56 227 l 1
 161 227 l 1
 216 373 l 1
 24 373 l 1
 13 384 l 1
203 227 m 1
 321 227 l 1
 376 373 l 1
 258 373 l 1
 203 227 l 1
EndSplineSet
EndChar
StartChar: greater
Encoding: 62 62 30
Width: 480
Flags: W
HStem: 507 20G<76 128>
LayerCount: 2
Back
SplineSet
80 500 m 25
 400 300 l 25
 80 100 l 1049
EndSplineSet
Fore
SplineSet
53 484 m 1
 96 527 l 1
 416 327 l 1
 427 316 l 1
 384 273 l 1
 64 73 l 1
 53 84 l 1
 96 127 l 1
 357 290 l 1
 64 473 l 1
 53 484 l 1
EndSplineSet
EndChar
StartChar: J
Encoding: 74 74 42
Width: 360
Flags: W
HStem: -177 54<18.7431 118.519> 523 21G<13 44> 573 54<77.8262 132.32> 573 36<79 114.391>
VStem: 152 16<-146 549> 233 54<-84 544>
AnchorPoint: "abvmark" 200 700 basechar 0
LayerCount: 2
Back
SplineSet
40 550 m 1
 40 550 67 600 99 600 c 3
 128 600 142 575 160 575 c 3
 182 575 200 600 201 600 c 1025
160 550 m 1
 160 -125 l 1025
300 600 m 1
 260 560 l 1
 260 -100 l 1
 160 -200 l 1
 160 -200 138 -150 60 -150 c 3
 5 -150 -20 -200 -20 -200 c 1025
EndSplineSet
Fore
SplineSet
316 627 m 1xec
 327 616 l 1
 287 576 l 1
 287 -84 l 1
 144 -227 l 1
 133 -216 l 1
 133 -216 130 -210 124 -203 c 0
 109 -190 84 -177 44 -177 c 0
 28 -177 16 -181 5 -187 c 2
 -36 -227 l 1
 -47 -216 l 1
 -47 -216 -41 -204 -29 -192 c 2
 13 -150 l 2
 26 -137 47 -123 76 -123 c 0
 113 -123 136 -134 152 -146 c 1
 152 549 l 2
 150 548 147 548 144 548 c 0
 126 548 112 573 83 573 c 0xec
 78 573 75 572 70 570 c 0
 69 568 67 566 67 566 c 1
 24 523 l 1
 13 534 l 1
 13 534 23 552 37 566 c 2
 79 609 l 2
 80 609 l 0xdc
 90 619 102 627 115 627 c 0
 144 627 158 602 176 602 c 0
 187 602 197 608 204 614 c 2
 216 626 l 2
 217 627 l 2xec
 228 616 l 1
 226 614 l 2
 225 613 223 611 221 609 c 2xdc
 221 608 l 2
 178 566 l 2
 175 563 172 560 168 557 c 1
 168 -155 l 1
 162 -155 l 1
 173 -166 l 2
 175 -168 177 -169 178 -171 c 2
 233 -116 l 1
 233 544 l 1
 316 627 l 1xec
EndSplineSet
EndChar
StartChar: L
Encoding: 76 76 44
Width: 560
Flags: W
HStem: -27 21G<13 44.5 272 404> 23 54<78.959 152 168 289.012> 523 21G<13 44> 573 54<77.8262 132.32> 573 36<79 114.391>
VStem: 152 16<77 549> 233 54<166 544> 413 54<151.754 267.382>
AnchorPoint: "blwmark" 280 0 basechar 0
AnchorPoint: "abvmark" 320 700 basechar 0
LayerCount: 2
Back
SplineSet
40 550 m 1
 40 550 67 600 99 600 c 3
 128 600 142 575 160 575 c 3
 182 575 200 600 201 600 c 1025
160 550 m 1
 160 75 l 1025
260 150 m 1
 260 560 l 1
 300 600 l 1025
480 300 m 1
 480 300 440 268.799804688 440 240 c 3
 440 191.200195312 480 80.7998046875 480 80.7998046875 c 1
 400 0 l 17
 400 0 279 50 120 50 c 3
 65 50 40 0 40 0 c 1033
EndSplineSet
Fore
SplineSet
507 316 m 1xef
 483 291 l 2
 474 280 467 268 467 256 c 0
 467 207 507 96 507 96 c 1
 427 16 l 1
 384 -27 l 1
 384 -27 263 23 104 23 c 0
 88 23 76 19 65 13 c 2
 24 -27 l 1
 13 -16 l 1
 13 -16 19 -4 31 8 c 2
 73 50 l 2
 86 63 107 77 136 77 c 0
 142 77 147 77 152 77 c 1
 152 549 l 2
 150 548 147 548 144 548 c 0
 126 548 112 573 83 573 c 0xf7
 78 573 75 572 70 570 c 0
 69 568 67 566 67 566 c 1
 24 523 l 1
 13 534 l 1
 13 534 23 552 37 566 c 2
 79 609 l 2
 80 609 l 0xef
 90 619 102 627 115 627 c 0
 144 627 158 602 176 602 c 0
 187 602 197 608 204 614 c 2
 216 626 l 2
 217 627 l 2xf7
 228 616 l 1
 226 614 l 2
 225 613 223 611 221 609 c 2
 221 608 l 2
 178 566 l 2
 175 563 172 560 168 557 c 1
 168 76 l 1
 306 70 409 30 415 27 c 1
 453 65 l 1
 453 65 413 175 413 224 c 0
 413 242 428 261 440 273 c 2
 483 315 l 2
 490 322 496 327 496 327 c 1
 507 316 l 1xef
244 123 m 1
 233 134 l 1
 233 544 l 1
 316 627 l 1
 327 616 l 1
 287 576 l 1
 287 166 l 1
 244 123 l 1
EndSplineSet
EndChar
StartChar: M
Encoding: 77 77 45
Width: 720
Flags: W
HStem: -27 21G<13 44.5 193 224 404 444 584 624> 23 54<78.7431 151.321> 523 21G<13 44> 573 54<77.8262 132.32> 573 36<79 114.391>
VStem: 152 16<76 549> 233 54<56 544> 373 54<56 516> 553 54<56 516>
AnchorPoint: "blwmark" 360 0 basechar 0
AnchorPoint: "abvmark" 400 700 basechar 0
LayerCount: 2
Back
SplineSet
660 40 m 25
 620 0 l 17
 580 40 l 1
 580 500 l 1
 480 600 l 1
 400 520 l 1025
40 550 m 1
 40 550 67 600 99 600 c 3
 128 600 142 575 160 575 c 3
 182 575 200 600 201 600 c 1025
160 550 m 1
 160 75 l 1025
480 40 m 25
 440 0 l 17
 400 40 l 1
 400 500 l 1
 300 600 l 1
 260 560 l 1
 260 40 l 1
 220 0 l 1
 220 0 198 50 120 50 c 3
 65 50 40 0 40 0 c 1033
EndSplineSet
Fore
SplineSet
496 67 m 1xef80
 507 56 l 1
 424 -27 l 1
 373 24 l 1
 373 484 l 2
 373 532 312 546 287 571 c 1
 287 56 l 1
 204 -27 l 1
 193 -16 l 1
 193 -16 190 -10 184 -3 c 0
 169 10 144 23 104 23 c 0
 88 23 76 19 65 13 c 2
 24 -27 l 1
 13 -16 l 1
 13 -16 19 -4 31 8 c 2
 73 50 l 2
 86 63 107 77 136 77 c 0
 142 77 147 77 152 76 c 1
 152 549 l 2
 150 548 147 548 144 548 c 0
 126 548 112 573 83 573 c 0xf780
 78 573 75 572 70 570 c 0
 69 568 67 566 67 566 c 1
 24 523 l 1
 13 534 l 1
 13 534 23 552 37 566 c 2
 79 609 l 2
 80 609 l 0xef80
 90 619 102 627 115 627 c 0
 144 627 158 602 176 602 c 0
 187 602 197 608 204 614 c 2
 216 626 l 2
 217 627 l 2xf780
 228 616 l 1
 226 614 l 2
 225 613 223 611 221 609 c 2xef80
 221 608 l 2
 178 566 l 2
 175 563 172 560 168 557 c 1
 168 74 l 1
 194 68 210 56 221 46 c 2
 222 46 l 2
 233 34 l 1
 233 544 l 1
 316 627 l 1
 406 537 l 1
 496 627 l 1xf780
 607 516 l 1
 607 56 l 1
 636 27 l 1
 676 67 l 1
 687 56 l 1
 604 -27 l 1
 553 24 l 1
 553 484 l 2
 553 534 490 547 464 573 c 1
 417 526 l 1
 427 516 l 1
 427 56 l 1
 456 27 l 1
 496 67 l 1xef80
EndSplineSet
EndChar
StartChar: O
Encoding: 79 79 47
Width: 640
Flags: W
HStem: -27 54<245.122 370.904> 465 21G<213 232> 573 54<321.297 354>
VStem: 73 54<176.605 404.945> 232 16<70 473 532 579> 313 54<116 534> 495 54<194.117 451.117>
AnchorPoint: "blwmark" 320 0 basechar 0
AnchorPoint: "abvmark" 360 700 basechar 0
LayerCount: 2
Back
SplineSet
240 550 m 1
 240 100 l 1025
342 550 m 1
 340 100 l 1025
240 600 m 1
 240 600 100 480 100 300 c 3
 100 134 176 0 320 0 c 3
 415 0 522 142 522 300 c 3
 522 512 449 600 360 600 c 3
 290 600 240 492 240 492 c 1025
EndSplineSet
Fore
SplineSet
267 616 m 1
 241 590 l 2
 238 587 235 584 232 580 c 2
 248 580 l 1
 248 532 l 1
 253 538 258 544 264 550 c 2
 306 592 l 2
 325 611 350 627 376 627 c 0
 409 627 438 616 464 590 c 2
 476 578 l 2
 520 534 549 450 549 316 c 0
 549 216 506 122 451 67 c 2
 409 25 l 2
 377 -7 339 -27 304 -27 c 0
 248 -27 202 -6 167 29 c 2
 156 40 l 2
 102 94 73 183 73 284 c 0
 73 431 167 539 201 573 c 2
 243 615 l 2
 251 623 256 627 256 627 c 1
 267 616 l 1
354 573 m 2
 351 573 347 573 344 573 c 0
 327 573 311 567 297 557 c 1
 278 532 267 508 267 508 c 1
 248 489 l 1
 248 70 l 1
 232 70 l 1
 232 473 l 1
 224 465 l 1
 213 476 l 1
 213 476 220 491 232 510 c 1
 232 579 l 1
 190 530 127 437 127 316 c 0
 127 219 154 131 204 77 c 0
 239 45 282 27 336 27 c 0
 363 27 392 39 418 59 c 1
 463 115 495 197 495 284 c 0
 495 412 468 496 427 541 c 0
 407 559 386 569 363 572 c 1
 369 566 l 1
 367 116 l 1
 324 73 l 1
 313 84 l 1
 315 534 l 1
 354 573 l 2
EndSplineSet
EndChar
StartChar: S
Encoding: 83 83 51
Width: 560
Flags: W
HStem: 23 54<100.807 270.559> 523 54<267.596 416.293> 532 20G<436 467> 607 20G<156 256 448 507>
VStem: 53 54<462 484> 453 54<116 238>
AnchorPoint: "blwmark" 280 0 basechar 0
AnchorPoint: "abvmark" 280 700 basechar 0
LayerCount: 2
Back
SplineSet
440 525 m 25
 98 100 l 1049
380 189 m 1
 100 310 l 9
 120 375 l 1049
480 600 m 1
 480 600 411 550 360 550 c 3
 303 550 160 600 160 600 c 1
 80 500 l 1
 80 440 l 1
 480 260 l 1
 480 100 l 1
 400 0 l 1
 400 0 216 50 160 50 c 3
 102 50 40 0 40 0 c 1025
EndSplineSet
Fore
SplineSet
507 616 m 1xdc
 464 573 l 1
 464 573 395 523 344 523 c 0xdc
 294 523 179 561 151 571 c 1
 107 516 l 1
 107 462 l 1
 304 373 l 1
 413 509 l 1
 456 552 l 1xbc
 467 541 l 1
 325 364 l 1
 496 287 l 1
 507 276 l 1
 507 116 l 1
 427 16 l 1
 384 -27 l 1
 384 -27 200 23 144 23 c 0
 86 23 24 -27 24 -27 c 1
 13 -16 l 1
 56 27 l 1
 56 27 118 77 176 77 c 0
 225 77 375 38 409 29 c 1
 453 84 l 1
 453 238 l 1
 285 314 l 1
 255 277 l 1
 396 216 l 1
 407 205 l 1
 364 162 l 1
 214 227 l 1
 125 116 l 1
 82 73 l 1
 71 84 l 1
 193 236 l 1
 84 283 l 1
 73 294 l 1
 93 359 l 1
 121 388 l 1
 64 413 l 1
 53 424 l 1
 53 484 l 1
 133 584 l 1
 176 627 l 1
 176 627 319 577 376 577 c 0
 427 577 496 627 496 627 c 1
 507 616 l 1xdc
143 378 m 1
 129 331 l 1
 233 286 l 1
 264 324 l 1
 143 378 l 1
EndSplineSet
EndChar
StartChar: T
Encoding: 84 84 52
Width: 560
Flags: W
HStem: -27 54<211.238 332.615> 460 20G<212 228> 473 21G<53 84> 573 54<165.982 230.912>
VStem: 73 54<130.432 323.189> 212 16<70 450 473 480> 293 54<116 434>
AnchorPoint: "blwmark" 280 0 basechar 0
AnchorPoint: "abvmark" 320 700 basechar 0
LayerCount: 2
Back
SplineSet
220 450 m 1
 220 100 l 1049
320 450 m 1
 320 100 l 1049
200 450 m 1
 200 450 100 356 100 250 c 3
 100 84 171 0 280 0 c 3
 375 0 481 150 482 150 c 1049
80 500 m 17
 80 500 144 600 200 600 c 27
 264 600 278 500 342 500 c 19
 404 500 460 600 461 600 c 1033
EndSplineSet
Fore
SplineSet
64 473 m 1xbe
 53 484 l 1
 53 484 73 516 101 544 c 2
 144 586 l 2
 165 607 192 627 216 627 c 0
 236 627 251 617 264 604 c 2
 275 593 l 2
 289 579 301 559 315 544 c 0
 327 534 341 527 358 527 c 0
 376 527 393 536 407 546 c 1
 423 566 433 583 434 584 c 2
 477 627 l 2
 488 616 l 2
 486 614 467 582 440 554 c 2
 439 553 l 2
 397 510 l 2
 380 493 359 478 338 474 c 1
 347 466 l 1
 347 116 l 1
 304 73 l 1
 293 84 l 1
 293 434 l 1
 332 473 l 2
 330 473 328 473 326 473 c 0
 306 473 292 482 279 495 c 2
 279 496 l 2
 278 496 l 1
 267 507 l 2
 253 521 241 540 227 556 c 0
 216 566 201 573 184 573 c 0
 167 573 150 564 133 551 c 1
 118 532 107 516 107 516 c 1
 64 473 l 1xbe
212 480 m 1xde
 228 480 l 1xde
 228 70 l 1
 212 70 l 1
 212 450 l 1
 184 419 127 346 127 266 c 0
 127 175 149 108 186 67 c 1
 215 41 253 27 296 27 c 0
 337 27 381 56 416 87 c 0
 439 113 454 133 455 134 c 2
 497 177 l 2
 498 177 l 2
 509 166 l 1
 506 163 482 130 448 96 c 2
 406 53 l 2
 367 14 314 -27 264 -27 c 0
 218 -27 179 -12 149 18 c 2
 138 30 l 2
 97 71 73 138 73 234 c 0
 73 329 153 414 170 431 c 2
 170 432 l 1
 212 473 l 1xbe
 212 480 l 1xde
EndSplineSet
EndChar
StartChar: n
Encoding: 110 110 78
Width: 320
Flags: W
HStem: 407 20G<66 96 176 216> 407 20G<66 96 176 216>
VStem: 53 54<26 316 338 374> 213 54<26 354.693>
AnchorPoint: "blwmark" 160 0 basechar 0
AnchorPoint: "abvmark" 160 500 basechar 0
LayerCount: 2
Back
SplineSet
230 20 m 25
 250 0 l 1049
240 10 m 1
 240 340 l 25
 180 400 l 1
 80 300 l 1049
70 20 m 25
 90 0 l 1049
90 380 m 25
 70 400 l 1049
80 390 m 9
 80 10 l 1025
EndSplineSet
Fore
SplineSet
107 406 m 1xb0
 117 396 l 1
 107 386 l 1
 107 338 l 1
 196 427 l 1
 267 356 l 1
 267 26 l 1
 277 16 l 1
 234 -27 l 1
 224 -17 l 1
 213 -6 l 1
 203 4 l 1
 213 14 l 1
 213 324 l 2
 213 351 178 359 164 373 c 1
 107 316 l 1
 107 26 l 1
 117 16 l 1
 74 -27 l 1
 64 -17 l 1
 53 -6 l 1
 43 4 l 1
 53 14 l 1
 53 284 l 1
 53 374 l 1
 43 384 l 1
 86 427 l 1
 96 417 l 1
 107 406 l 1xb0
EndSplineSet
Substitution2: "Stylistic alternates-1" n.alt
EndChar
StartChar: t
Encoding: 116 116 84
Width: 259
Flags: W
HStem: 373 54<56 73 127 184> 557 20G<96 127>
VStem: 73 54<32.437 373 427 534>
AnchorPoint: "blwmark" 140 0 basechar 0
AnchorPoint: "abvmark" 120 650 basechar 0
LayerCount: 2
Back
SplineSet
40 400 m 25
 200 400 l 1049
100 550 m 1
 100 40 l 1
 140 0 l 1
 220 80 l 1025
EndSplineSet
Fore
SplineSet
116 577 m 1
 127 566 l 1
 127 427 l 1
 216 427 l 1
 227 416 l 1
 184 373 l 1
 127 373 l 1
 127 56 l 2
 127 41 148 35 156 27 c 1
 236 107 l 1
 247 96 l 1
 124 -27 l 1
 73 24 l 1
 73 373 l 1
 24 373 l 1
 13 384 l 1
 56 427 l 1
 73 427 l 1
 73 534 l 1
 116 577 l 1
EndSplineSet
EndChar
StartChar: v
Encoding: 118 118 86
Width: 320
Flags: W
HStem: 407 20G<66 96> 427 130G<66 96 253 271>
VStem: 53 54<64 374> 173 54<420.879 509.322> 213 54<96 382>
AnchorPoint: "blwmark" 160 0 basechar 0
LayerCount: 2
Back
SplineSet
90 380 m 25
 70 400 l 1049
80 390 m 25
 80 80 l 1
 160 0 l 25
 240 80 l 1
 240 380 l 17
 260 342 200 423 200 472 c 8
 200 512 243 550 244 550 c 1033
EndSplineSet
Fore
SplineSet
107 406 m 1xa8
 117 396 l 1
 107 386 l 1
 107 96 l 2
 107 58 156 47 176 27 c 1
 213 64 l 1
 213 359 l 1xa8
 202 373 173 422 173 456 c 0
 173 486 198 515 210 528 c 2
 252 570 l 2
 253 571 l 2
 257 575 260 577 260 577 c 2
 271 566 l 1
 255 550 l 2
 243 536 227 512 227 488 c 0xb0
 227 463 243 429 256 407 c 1
 267 396 l 2
 270 390 271 386 271 386 c 2
 267 382 l 1
 267 96 l 1
 144 -27 l 1
 53 64 l 1
 53 374 l 1
 43 384 l 1
 86 427 l 1
 96 417 l 1
 107 406 l 1xa8
EndSplineSet
Substitution2: "Dotless forms-1" v.alt
EndChar
StartChar: asciitilde
Encoding: 126 126 94
Width: 560
Flags: W
HStem: 273 54<232.754 432.395> 298 54<127.668 327.246>
LayerCount: 2
Back
SplineSet
80 275 m 17
 80 275 125 325 160 325 c 27
 254 325 306 300 400 300 c 27
 435 300 480 350 480 350 c 1033
EndSplineSet
Fore
SplineSet
64 248 m 1x40
 53 259 l 1
 53 259 55 262 59 266 c 2
 102 308 l 2
 116 322 149 352 176 352 c 0x40
 270 352 322 327 416 327 c 0
 439 327 467 349 483 364 c 2
 496 377 l 1
 507 366 l 2
 507 366 505 364 501 360 c 2
 501 359 l 2
 458 317 l 2
 444 303 411 273 384 273 c 0x80
 290 273 238 298 144 298 c 0
 121 298 94 276 77 261 c 2
 64 248 l 1x40
EndSplineSet
EndChar
StartChar: brokenbar
Encoding: 166 166 205
Width: 200
Flags: W
HStem: -177 21G<73 104>
VStem: 73 54<-134 184 366 684>
LayerCount: 2
Back
SplineSet
100 -150 m 17
 100 200 l 1025
100 350 m 1
 100 700 l 1033
EndSplineSet
Fore
SplineSet
84 323 m 1
 73 334 l 1
 73 684 l 1
 116 727 l 1
 127 716 l 1
 127 366 l 1
 84 323 l 1
84 -177 m 1
 73 -166 l 1
 73 184 l 1
 116 227 l 1
 127 216 l 1
 127 -134 l 1
 84 -177 l 1
EndSplineSet
EndChar
StartChar: section
Encoding: 167 167 206
Width: 400
Flags: W
HStem: -187 54<83.6929 189.92> 633 54<213.839 319.915>
VStem: 53 54<163 304 473 604> 293 54<-104 27 196 337>
LayerCount: 2
Back
SplineSet
160 400 m 25
 80 320 l 25
 80 140 l 25
 320 50 l 25
 320 -120 l 25
 240 -200 l 17
 240 -200 176 -160 130 -160 c 27
 92 -160 40 -200 40 -200 c 1033
360 700 m 17
 360 700 315 660 280 660 c 27
 231 660 160 700 160 700 c 9
 80 620 l 25
 80 450 l 25
 320 360 l 25
 320 180 l 25
 240 100 l 1049
EndSplineSet
Fore
SplineSet
387 716 m 1
 344 673 l 1
 344 673 299 633 264 633 c 0
 215 633 144 673 144 673 c 2
 144 673 111 640 107 636 c 2
 107 473 l 1
 336 387 l 1
 347 376 l 1
 347 196 l 1
 257 106 l 1
 336 77 l 1
 347 66 l 1
 347 -104 l 1
 224 -227 l 1
 224 -227 160 -187 114 -187 c 0
 76 -187 24 -227 24 -227 c 1
 13 -216 l 1
 56 -173 l 1
 56 -173 108 -133 146 -133 c 0
 192 -133 256 -173 256 -173 c 1
 293 -136 l 1
 293 27 l 1
 64 113 l 1
 53 124 l 1
 53 304 l 1
 143 394 l 1
 64 423 l 1
 53 434 l 1
 53 604 l 1
 176 727 l 1
 176 727 247 687 296 687 c 0
 331 687 376 727 376 727 c 1
 387 716 l 1
241 112 m 1
 293 164 l 1
 293 337 l 1
 159 388 l 1
 107 336 l 1
 107 163 l 1
 241 112 l 1
EndSplineSet
EndChar
StartChar: ordmasculine
Encoding: 186 186 211
Width: 320
Flags: W
HStem: 173 54<56 264>
VStem: 53 54<364 604> 213 54<396 636>
LayerCount: 2
Back
SplineSet
160 700 m 25
 80 620 l 25
 80 380 l 25
 160 300 l 25
 240 380 l 25
 240 620 l 25
 160 700 l 25
40 200 m 25
 280 200 l 1049
EndSplineSet
Fore
SplineSet
13 184 m 1
 56 227 l 1
 296 227 l 1
 307 216 l 1
 264 173 l 1
 24 173 l 1
 13 184 l 1
144 673 m 1
 107 636 l 1
 107 396 l 2
 107 358 156 347 176 327 c 1
 213 364 l 1
 213 604 l 2
 213 642 164 653 144 673 c 1
53 604 m 1
 176 727 l 1
 267 636 l 1
 267 396 l 1
 144 273 l 1
 53 364 l 1
 53 604 l 1
EndSplineSet
EndChar
StartChar: guillemotright
Encoding: 187 187 216
Width: 440
Flags: W
HStem: 23 329
LayerCount: 2
Back
SplineSet
260 325 m 17
 260 325 277 295 300 275 c 0
 376 207 400 200 400 200 c 1
 400 200 349 174 280 100 c 0
 263 82 240 50 240 50 c 1033
60 325 m 17
 60 325 77 295 100 275 c 0
 176 207 200 200 200 200 c 1
 200 200 149 174 80 100 c 0
 63 82 40 50 40 50 c 1033
EndSplineSet
Fore
SplineSet
76 352 m 1
 87 341 l 1
 87 341 98 321 114 303 c 0
 115 302 116 302 116 302 c 0
 171 252 199 236 210 230 c 0
 216 227 l 1
 227 216 l 1
 184 173 l 2
 184 173 151 156 104 113 c 0
 87 94 67 66 67 66 c 2
 24 23 l 1
 13 34 l 1
 13 34 36 66 53 84 c 0
 59 91 65 97 71 103 c 2
 114 145 l 2
 131 162 145 176 159 187 c 1
 143 198 119 216 84 248 c 0
 82 250 80 252 78 254 c 0
 78 255 l 2
 77 255 l 1
 66 266 l 2
 47 285 33 309 33 309 c 1
 76 352 l 1
276 352 m 1
 287 341 l 1
 287 341 298 321 314 303 c 0
 315 302 316 302 316 302 c 0
 371 252 399 236 410 230 c 0
 416 227 l 1
 427 216 l 1
 384 173 l 2
 384 173 351 156 304 113 c 0
 287 94 267 66 267 66 c 2
 224 23 l 1
 213 34 l 1
 213 34 236 66 253 84 c 0
 259 91 265 97 271 103 c 2
 314 145 l 2
 331 162 345 176 359 187 c 1
 343 198 319 216 284 248 c 0
 282 250 280 252 278 254 c 0
 278 255 l 2
 277 255 l 1
 266 266 l 2
 247 285 233 309 233 309 c 1
 276 352 l 1
EndSplineSet
EndChar
StartChar: Eth
Encoding: 208 208 180
Width: 560
Flags: W
HStem: -27 21G<13 44.5 272 404> 23 54<78.959 152 168 289.012> 523 21G<13 44> 573 54<77.8262 132.32> 573 36<79 114.391>
VStem: 152 16<77 294 352 549> 233 54<166 282.818 340 534> 453 54<117 456>
AnchorPoint: "blwmark" 280 0 basechar 0
AnchorPoint: "abvmark" 320 700 basechar 0
LayerCount: 2
Back
SplineSet
40 550 m 1
 40 550 67 600 99 600 c 3
 128 600 142 575 160 575 c 3
 182 575 200 600 201 600 c 1025
160 550 m 1
 160 75 l 1025
260 150 m 1
 260 550 l 1
 300 600 l 1
 480 475 l 1
 480 101 l 1
 400 0 l 17
 400 0 279 50 120 50 c 3
 65 50 40 0 40 0 c 1033
80 275 m 17
 80 275 112 325 140 325 c 27
 203 325 237 300 300 300 c 27
 328 300 360 350 360 350 c 1033
EndSplineSet
Fore
SplineSet
64 248 m 1xf7
 53 259 l 1
 53 259 63 275 77 289 c 2
 119 331 l 2
 120 332 l 0
 130 342 141 350 152 352 c 1
 152 549 l 2
 150 548 147 548 144 548 c 0
 126 548 112 573 83 573 c 0xf7
 78 573 75 572 70 570 c 0
 69 568 67 566 67 566 c 1
 24 523 l 1
 13 534 l 1
 13 534 23 552 37 566 c 2
 79 609 l 2
 80 609 l 0xef
 90 619 102 627 115 627 c 0
 144 627 158 602 176 602 c 0
 187 602 197 608 204 614 c 2
 216 626 l 2
 217 627 l 2xf7
 228 616 l 1
 226 614 l 2
 225 613 223 611 221 609 c 2xef
 221 608 l 2
 178 566 l 2
 175 563 172 560 168 557 c 1
 168 352 l 1
 193 351 213 345 233 340 c 1
 233 534 l 1
 273 584 l 1
 316 627 l 1
 496 502 l 1
 507 491 l 1
 507 117 l 1
 427 16 l 1
 384 -27 l 1
 384 -27 263 23 104 23 c 0
 88 23 76 19 65 13 c 2
 24 -27 l 1
 13 -16 l 1
 13 -16 19 -4 31 8 c 2
 73 50 l 2
 86 63 107 77 136 77 c 0
 142 77 147 77 152 77 c 1
 152 296 l 1
 143 297 134 298 124 298 c 0
 119 298 115 297 109 294 c 0
 108 293 107 291 107 291 c 1
 64 248 l 1xf7
244 123 m 1
 233 134 l 1
 233 279 l 1
 211 284 191 290 168 294 c 1
 168 76 l 1
 289 71 383 39 409 29 c 1
 453 85 l 1
 453 456 l 1
 290 569 l 1
 287 566 l 1
 287 329 l 1
 296 328 306 327 316 327 c 0
 321 327 326 329 331 331 c 0
 332 333 333 334 333 334 c 1
 376 377 l 1
 387 366 l 1
 387 366 377 350 363 336 c 2
 321 294 l 2
 311 284 299 274 287 273 c 1
 287 166 l 1
 244 123 l 1
EndSplineSet
EndChar
StartChar: ae
Encoding: 230 230 189
Width: 440
Flags: W
HStem: 203 54<159.334 213> 407 20G<136 236 316 356> 407 20G<136 236 316 356>
VStem: 53 54<76 174> 213 54<84 136 158 203 257 304 305 336> 373 54<296 336>
CounterMasks: 1 1c
AnchorPoint: "blwmark" 240 0 basechar 0
AnchorPoint: "abvmark" 240 500 basechar 0
LayerCount: 2
Back
SplineSet
100 280 m 17
 80 340 l 1
 140 400 l 1
 240 375 l 1
 240 100 l 9
 140 0 l 1
 80 60 l 1
 80 190 l 1
 140 250 l 1
 140 250 155 230 200 230 c 3
 176.991563428 230 240 230 240 230 c 1033
240 120 m 1
 400 280 l 1
 400 320 l 1
 320 400 l 25
 240 320 l 25
 240 80 l 25
 320 0 l 1041
EndSplineSet
Fore
SplineSet
179 203 m 0x9c
 146 204 131 216 126 221 c 0
 124 223 l 1
 107 206 l 1
 107 76 l 1
 156 27 l 1
 213 84 l 1
 213 203 l 1
 200 203 179 203 179 203 c 0x9c
213 257 m 2
 213 304 l 1
 214 305 l 1
 213 351 l 1
 124 373 l 1
 107 356 l 1
 127 296 l 1
 84 253 l 1
 73 264 l 1
 53 324 l 1
 156 427 l 1
 256 402 l 1
 267 391 l 1
 267 358 l 1
 336 427 l 1xdc
 427 336 l 1
 427 296 l 1
 267 136 l 1
 267 116 l 1
 267 96 l 2
 267 58 316 47 336 27 c 2
 347 16 l 1
 304 -27 l 1
 214 63 l 1
 124 -27 l 1
 53 44 l 1
 53 174 l 1
 156 277 l 1
 159 273 l 2
 166 267 181 258 211 257 c 0
 211 257 212 257 213 257 c 2
267 336 m 1
 267 158 l 1
 373 264 l 1
 373 304 l 2
 373 342 324 353 304 373 c 1
 267 336 l 1
EndSplineSet
EndChar
StartChar: oslash
Encoding: 248 248 183
Width: 320
Flags: W
HStem: 407 20G<156 195.692 276 307> 407 20G<156 195.692 276 307>
VStem: 53 54<141 304> 213 54<96 259>
AnchorPoint: "blwmark" 160 0 basechar 0
AnchorPoint: "abvmark" 160 500 basechar 0
LayerCount: 2
Back
SplineSet
280 400 m 25
 40 0 l 1049
160 400 m 25
 80 320 l 25
 80 80 l 25
 160 0 l 25
 240 80 l 25
 240 320 l 25
 160 400 l 25
EndSplineSet
Fore
SplineSet
144 373 m 1x30
 107 336 l 1
 107 141 l 1
 212 315 l 1
 204 344 162 355 144 373 c 1x30
53 304 m 1
 176 427 l 1
 240 362 l 1
 253 384 l 1
 296 427 l 1xb0
 307 416 l 1
 262 341 l 1
 267 336 l 1
 267 96 l 1
 144 -27 l 1
 80 38 l 1
 67 16 l 1
 24 -27 l 1
 13 -16 l 1
 58 59 l 1
 53 64 l 1
 53 304 l 1
108 85 m 1
 116 56 158 45 176 27 c 1
 213 64 l 1
 213 259 l 1
 108 85 l 1
EndSplineSet
EndChar
StartChar: OE
Encoding: 338 338 116
Width: 1000
Flags: W
HStem: -27 54<225.122 350.904 645.122 772.615> 273 54<844.993 863.688> 465 21G<193 212 613 632> 507 20G<736 767> 523 54<818 865.607> 573 54<301.297 334 734.081 776.575>
VStem: 53 54<176.605 404.945> 212 16<70 473 532 579> 293 54<116 534> 475 53<172.77 438.715> 632 16<70 473 520 579> 713 54<116 316 341 484>
AnchorPoint: "blwmark" 480 0 basechar 0
AnchorPoint: "abvmark" 520 700 basechar 0
LayerCount: 2
Back
SplineSet
740 300 m 25
 740 300 778 350 800 350 c 27
 828 350 812 300 840 300 c 3
 873 300 900 350 901 350 c 1049
640 550 m 1
 640 100 l 1025
740 500 m 1
 740 100 l 1025
640 600 m 1
 640 600 500 480 500 300 c 3
 500 134 576 0 720 0 c 3
 815 0 921 150 922 150 c 1025
640 492 m 1
 640 492 716 600 764 600 c 3
 815 600 794 550 840 550 c 3
 878 550 900 600 901 600 c 1025
220 550 m 1
 220 100 l 1025
322 550 m 1
 320 100 l 1025
220 600 m 1
 220 600 80 480 80 300 c 3
 80 134 156 0 300 0 c 3
 395 0 502 142 502 300 c 3
 502 512 429 600 340 600 c 3
 270 600 220 492 220 492 c 1025
EndSplineSet
Fore
SplineSet
247 616 m 1xe7f0
 221 590 l 2
 218 587 215 584 212 580 c 2
 228 580 l 1
 228 532 l 1
 233 538 238 544 244 550 c 2
 286 592 l 2
 305 611 330 627 356 627 c 0
 389 627 418 616 444 590 c 2
 456 578 l 2
 482 552 502 512 515 455 c 1
 544 513 582 554 601 573 c 2
 643 615 l 2
 651 623 656 627 656 627 c 1
 667 616 l 1
 641 590 l 2
 638 587 635 584 632 580 c 2
 648 580 l 1
 648 520 l 1
 654 527 661 535 668 542 c 2
 711 584 l 2
 734 607 759 627 780 627 c 0xe7f0
 795 627 803 623 809 617 c 2
 821 605 l 2
 828 598 831 588 836 581 c 0
 841 578 847 577 856 577 c 0xebf0
 862 577 867 579 871 580 c 0
 873 583 874 584 874 584 c 2
 916 627 l 2
 917 627 l 1xe7f0
 928 616 l 2
 927 614 918 598 905 584 c 2
 862 541 l 2
 852 531 839 523 824 523 c 0xebf0
 812 523 804 527 799 532 c 2
 788 543 l 2
 781 550 778 560 772 568 c 0
 767 571 759 573 748 573 c 0
 734 573 717 563 700 549 c 0
 681 528 667 508 667 508 c 1
 648 489 l 1
 648 70 l 1
 632 70 l 1
 632 473 l 1
 624 465 l 1
 613 476 l 1
 613 476 620 487 632 501 c 1
 632 579 l 1
 594 534 538 453 528 347 c 0
 528 337 529 327 529 316 c 0
 529 306 529 297 528 287 c 0
 533 202 559 126 604 77 c 0
 639 45 682 27 736 27 c 0
 777 27 821 56 856 87 c 0
 879 113 894 133 895 134 c 2
 937 177 l 2
 938 177 l 2
 949 166 l 1
 946 163 922 130 888 96 c 2
 846 53 l 2
 807 14 754 -27 704 -27 c 0
 648 -27 602 -6 567 29 c 2
 556 40 l 2
 527 69 505 109 491 154 c 1
 475 120 454 90 431 67 c 2
 389 25 l 2
 357 -7 319 -27 284 -27 c 0
 228 -27 182 -6 147 29 c 2
 136 40 l 2
 82 94 53 183 53 284 c 0
 53 431 147 539 181 573 c 2
 223 615 l 2
 231 623 236 627 236 627 c 1
 247 616 l 1xe7f0
756 527 m 1xf3f0
 767 516 l 1
 767 341 l 1
 779 354 l 2
 791 366 806 377 816 377 c 0
 821 377 824 376 827 373 c 2
 838 361 l 2
 839 361 l 2
 846 353 847 337 851 327 c 0
 853 327 854 327 856 327 c 0
 862 327 867 329 871 331 c 0
 874 334 l 2
 916 377 l 2
 917 377 l 2
 928 366 l 2
 926 364 918 348 905 335 c 2
 904 335 l 2
 861 292 l 2
 851 282 838 273 824 273 c 0
 819 273 816 274 813 277 c 2
 802 289 l 2
 795 296 793 312 789 323 c 0
 788 323 786 323 784 323 c 0
 779 323 775 321 768 317 c 0
 767 316 l 1
 767 116 l 1
 724 73 l 1
 713 84 l 1
 713 284 l 1
 713 484 l 1
 756 527 l 1xf3f0
334 573 m 2xe7f0
 331 573 327 573 324 573 c 0
 307 573 291 567 277 557 c 1
 258 532 247 508 247 508 c 1
 228 489 l 1
 228 70 l 1
 212 70 l 1
 212 473 l 1
 204 465 l 1
 193 476 l 1
 193 476 200 491 212 510 c 1
 212 579 l 1
 170 530 107 437 107 316 c 0
 107 219 134 131 184 77 c 0
 219 45 262 27 316 27 c 0
 343 27 372 39 398 59 c 1
 438 109 468 179 474 255 c 0
 473 265 473 274 473 284 c 0
 473 295 474 306 475 316 c 0
 471 427 444 500 407 541 c 0
 387 559 366 569 343 572 c 1
 349 566 l 1
 347 116 l 1
 304 73 l 1
 293 84 l 1
 295 534 l 1
 334 573 l 2xe7f0
917 627 m 1
 918 627 917 627 917 627 c 1
EndSplineSet
EndChar
StartChar: HV
Encoding: 502 502 513
Width: 720
Flags: W
HStem: -27 21G<13 44.5 193 224 454 504> 23 54<78.7431 151.321> 523 21G<13 44> 573 54<77.8262 132.32> 573 36<79 114.391>
VStem: 152 16<76 549> 233 54<56 251 273 544> 413 54<59 319> 533 54<478 530> 593 54<136 433.724>
AnchorPoint: "blwmark" 380 0 basechar 0
AnchorPoint: "abvmark" 400 700 basechar 0
LayerCount: 2
Back
SplineSet
40 550 m 1
 40 550 67 600 99 600 c 3
 128 600 142 575 160 575 c 3
 182 575 200 600 201 600 c 1025
160 550 m 1
 160 75 l 1025
300 275 m 1
 400 375 l 1
 440 335 l 1
 440 40 l 1
 500 0 l 1
 620 120.799804688 l 1
 620 452 l 1
 620 452 560 455.200195312 560 500 c 3
 560 544 640 600 640 600 c 1025
300 600 m 1
 260 560 l 1
 260 40 l 1
 220 0 l 1
 220 0 198 50 120 50 c 3
 65 50 40 0 40 0 c 1033
EndSplineSet
Fore
SplineSet
316 627 m 1xf7c0
 327 616 l 1
 287 576 l 1
 287 273 l 1
 416 402 l 1
 467 351 l 1
 467 59 l 1
 515 27 l 1
 593 105 l 1
 593 427 l 1
 583 429 567 433 556 444 c 2
 545 455 l 1
 545 456 l 2
 544 456 l 0
 537 463 533 472 533 484 c 0
 533 505 552 529 571 548 c 2
 613 591 l 2
 634 612 656 627 656 627 c 1xf7c0
 667 616 l 1
 624 573 l 1xefc0
 624 573 617 568 606 559 c 0
 596 545 587 530 587 516 c 0
 587 507 590 500 594 493 c 0
 611 481 636 479 636 479 c 1
 647 468 l 1
 647 136 l 1
 527 16 l 1
 484 -27 l 1
 424 13 l 1
 413 24 l 1
 413 319 l 1
 384 348 l 1
 287 251 l 1
 287 56 l 1
 204 -27 l 1
 193 -16 l 1
 193 -16 190 -10 184 -3 c 0
 169 10 144 23 104 23 c 0
 88 23 76 19 65 13 c 2
 24 -27 l 1
 13 -16 l 1
 13 -16 19 -4 31 8 c 2
 73 50 l 2
 86 63 107 77 136 77 c 0
 142 77 147 77 152 76 c 1
 152 549 l 2
 150 548 147 548 144 548 c 0
 126 548 112 573 83 573 c 0xf7c0
 78 573 75 572 70 570 c 0
 69 568 67 566 67 566 c 1
 24 523 l 1
 13 534 l 1
 13 534 23 552 37 566 c 2
 79 609 l 2
 80 609 l 0xefc0
 90 619 102 627 115 627 c 0
 144 627 158 602 176 602 c 0
 187 602 197 608 204 614 c 2
 216 626 l 2
 217 627 l 2xf7c0
 228 616 l 1
 226 614 l 2
 225 613 223 611 221 609 c 2xefc0
 221 608 l 2
 178 566 l 2
 175 563 172 560 168 557 c 1
 168 74 l 1
 194 68 210 56 221 46 c 2
 222 46 l 2
 233 34 l 1
 233 544 l 1
 316 627 l 1xf7c0
EndSplineSet
EndChar
StartChar: dotlessj
Encoding: 567 567 98
Width: 160
Flags: W
HStem: 407 20G<66 96> 407 20G<66 96>
VStem: 53 54<-94 372>
AnchorPoint: "abvmark" 80 500 basechar 0
LayerCount: 2
Back
SplineSet
90 380 m 25
 70 400 l 25
 50 380 l 1049
80 390 m 1
 80 -110 l 9
 60 -130 l 1049
EndSplineSet
Fore
SplineSet
107 406 m 1xa0
 117 396 l 1
 107 386 l 1
 107 -94 l 1
 44 -157 l 1
 33 -146 l 1
 53 -126 l 1
 53 372 l 1
 34 353 l 1
 23 364 l 1
 86 427 l 1
 96 417 l 1
 107 406 l 1xa0
EndSplineSet
EndChar
StartChar: caron
Encoding: 711 711 245
Width: 320
Flags: W
HStem: 498 229
VStem: 133 54<541 601.207>
LayerCount: 2
Back
SplineSet
80 700 m 25
 80 700 160 625 160 525 c 1
 160 675 240 700 240 700 c 1025
EndSplineSet
Fore
SplineSet
53 684 m 1
 96 727 l 1
 96 727 96 726 97 725 c 2
 109 714 l 2
 116 707 143 678 163 638 c 1
 169 649 176 658 182 664 c 2
 225 706 l 2
 241 722 256 727 256 727 c 1
 267 716 l 1
 224 673 l 1
 224 673 222 673 217 670 c 0
 209 657 201 640 196 619 c 0
 190 598 187 572 187 541 c 1
 144 498 l 1
 133 509 l 1
 133 529 130 548 125 565 c 0
 108 624 70 667 57 680 c 2
 53 684 l 1
EndSplineSet
EndChar
StartChar: ring
Encoding: 730 730 184
Width: 320
Flags: W
HStem: 498 54<136.088 211.696> 698 54<108.304 183.912>
VStem: 53 54<582.536 697.147> 213 54<552.853 667.464>
LayerCount: 2
Back
SplineSet
80 650 m 0
 80 710 92 725 140 725 c 0
 200 725 240 675 240 600 c 0
 240 540 228 525 180 525 c 0
 120 525 80 575 80 650 c 0
EndSplineSet
Fore
SplineSet
53 634 m 0
 53 667 57 686 68 697 c 2
 110 740 l 2
 119 749 134 752 156 752 c 0
 182 752 204 743 221 726 c 2
 232 714 l 2
 254 692 267 658 267 616 c 0
 267 583 263 564 252 553 c 2
 210 510 l 2
 201 501 186 498 164 498 c 0
 138 498 116 507 99 524 c 2
 88 536 l 2
 66 558 53 592 53 634 c 0
107 666 m 0
 107 627 117 595 136 573 c 0
 152 560 173 552 196 552 c 0
 202 552 206 552 211 553 c 1
 212 561 213 572 213 584 c 0
 213 623 203 655 184 677 c 0
 168 690 147 698 124 698 c 0
 118 698 114 698 109 697 c 1
 108 689 107 678 107 666 c 0
EndSplineSet
EndChar
StartChar: hungarumlaut
Encoding: 733 733 267
Width: 320
Flags: W
HStem: 498 229
VStem: 133 54<634.624 684> 253 54<634.624 684>
LayerCount: 2
Back
SplineSet
280 700 m 17
 280 600 180 525 180 525 c 1049
160 700 m 17
 160 600 60 525 60 525 c 1049
EndSplineSet
Fore
SplineSet
176 727 m 1
 187 716 l 1
 187 649 143 594 113 564 c 2
 70 521 l 2
 55 506 44 498 44 498 c 2
 33 509 l 1
 76 552 l 2
 76 552 77 553 80 555 c 0
 106 586 133 631 133 684 c 1
 176 727 l 1
296 727 m 1
 307 716 l 1
 307 649 263 594 233 564 c 2
 190 521 l 2
 175 506 164 498 164 498 c 2
 153 509 l 1
 196 552 l 2
 196 552 197 553 200 555 c 0
 226 586 253 631 253 684 c 1
 296 727 l 1
EndSplineSet
EndChar
StartChar: quoteright
Encoding: 8217 8217 255
Width: 240
Flags: W
HStem: 473 124
VStem: 68 84
LayerCount: 2
Back
SplineSet
105 570 m 25
 125 550 l 1
 125 530 l 25
 95 500 l 1049
EndSplineSet
Fore
SplineSet
78 554 m 1
 121 597 l 1
 152 566 l 1
 152 546 l 1
 79 473 l 1
 68 484 l 1
 98 514 l 1
 98 534 l 1
 78 554 l 1
EndSplineSet
EndChar
StartChar: quotedblleft
Encoding: 8220 8220 251
Width: 400
Flags: W
HStem: 428 124
VStem: 88 244
LayerCount: 2
Back
SplineSet
135 455 m 25
 115 475 l 1
 115 495 l 25
 145 525 l 1049
295 455 m 25
 275 475 l 1
 275 495 l 25
 305 525 l 1049
EndSplineSet
Fore
SplineSet
322 471 m 1
 279 428 l 1
 248 459 l 1
 248 479 l 1
 321 552 l 1
 332 541 l 1
 302 511 l 1
 302 491 l 1
 322 471 l 1
162 471 m 1
 119 428 l 1
 88 459 l 1
 88 479 l 1
 161 552 l 1
 172 541 l 1
 142 511 l 1
 142 491 l 1
 162 471 l 1
EndSplineSet
EndChar
StartChar: minute
Encoding: 8242 8242 926
Width: 240
Flags: W
HStem: 500 227
VStem: 133 54<624.119 684>
LayerCount: 2
Back
SplineSet
160 700 m 17
 160 600 80 525 80 525 c 1041
EndSplineSet
Fore
SplineSet
176 727 m 1
 187 716 l 1
 187 625 121 554 109 542 c 2
 66 500 l 2
 65 499 64 498 64 498 c 1
 53 509 l 1
 57 514 l 2
 73 531 133 597 133 684 c 1
 176 727 l 1
EndSplineSet
EndChar
StartChar: guilsinglleft
Encoding: 8249 8249 242
Width: 240
Flags: W
HStem: 23 329
VStem: 13 214
LayerCount: 2
Back
SplineSet
180 325 m 17
 180 325 163 295 140 275 c 0
 64 207 40 200 40 200 c 1
 40 200 91 174 160 100 c 0
 177 82 200 50 200 50 c 1033
EndSplineSet
Fore
SplineSet
196 352 m 1
 207 341 l 1
 207 341 193 316 174 297 c 2
 131 255 l 2
 130 254 131 254 130 253 c 0
 128 251 126 250 124 248 c 0
 107 233 92 220 81 211 c 1
 99 198 125 178 157 146 c 2
 169 135 l 1
 169 134 l 2
 175 128 181 122 187 116 c 0
 204 98 227 66 227 66 c 1
 184 23 l 1
 173 34 l 1
 173 34 150 66 133 84 c 0
 129 89 124 93 120 98 c 0
 64 153 24 173 24 173 c 1
 13 184 l 1
 56 227 l 2
 56 227 75 233 137 286 c 0
 146 298 153 309 153 309 c 1
 196 352 l 1
EndSplineSet
EndChar
StartChar: minus
Encoding: 8722 8722 214
Width: 480
Flags: W
HStem: 273 54<96 384>
LayerCount: 2
Back
SplineSet
80 300 m 25
 400 300 l 1049
EndSplineSet
Fore
SplineSet
53 284 m 1
 96 327 l 1
 416 327 l 1
 427 316 l 1
 384 273 l 1
 64 273 l 1
 53 284 l 1
EndSplineSet
EndChar
StartChar: logicaland
Encoding: 8743 8743 952
Width: 480
Flags: W
HStem: 407 20G<236 267> 407 20G<236 267>
LayerCount: 2
Back
SplineSet
80 0 m 25
 240 400 l 25
 400 0 l 1049
EndSplineSet
Fore
SplineSet
64 -27 m 1x80
 53 -16 l 1
 213 384 l 1
 256 427 l 1
 267 416 l 1
 427 16 l 1
 384 -27 l 1
 373 -16 l 1
 234 333 l 1
 107 16 l 1
 64 -27 l 1x80
EndSplineSet
EndChar
StartChar: bracketangleright
Encoding: 9297 9297 931
Width: 320
Flags: W
HStem: -177 21G<13 44>
VStem: 13 294
LayerCount: 2
Back
SplineSet
60 675 m 17
 60 675 124 554 140 525 c 0
 176 459 280 250 280 250 c 1
 280 250 157 60 120 0 c 0
 106 -22 40 -150 40 -150 c 1033
EndSplineSet
Fore
SplineSet
76 702 m 1
 87 691 l 1
 87 691 151 570 167 541 c 0
 203 475 307 266 307 266 c 1
 307 266 184 76 147 16 c 0
 133 -6 67 -134 67 -134 c 1
 24 -177 l 1
 13 -166 l 1
 13 -166 79 -38 93 -16 c 0
 130 44 253 234 253 234 c 1
 253 234 149 443 113 509 c 0
 97 538 33 659 33 659 c 1
 76 702 l 1
EndSplineSet
EndChar
StartChar: FleuronCenter
Encoding: 10086 10086 955
Width: 560
Flags: W
HStem: 457 20G<165.5 181> 548 21G<13 44 374 504> 607 20G<56 329 516 547>
VStem: 33 254<86 308.5>
LayerCount: 2
Back
SplineSet
320 700 m 1
 320 700 360 644 360 600 c 27
 360 521 280 425 280 425 c 1025
40 575 m 25
 60 600 l 25
 500 575 l 25
 520 600 l 1049
440 100 m 1
 440 100 367 0 280 0 c 3
 183 0 60 141 60 300 c 27
 60 376 99 450 160 450 c 27
 210 450 240 325 240 325 c 1
 240 325 270 450 320 450 c 27
 364 450 400 399 400 350 c 3
 400 277 349 244 300 200 c 8
 266 169 260 128 260 75 c 19
 260 47 300 25 300 25 c 1025
EndSplineSet
Fore
SplineSet
456 127 m 1
 467 116 l 1
 467 116 456 101 438 83 c 2
 396 41 l 2
 395 40 l 0
 365 11 317 -27 264 -27 c 0
 256 -27 248 -26 239 -24 c 0
 207 -17 174 4 144 34 c 2
 133 45 l 2
 77 101 33 189 33 284 c 0
 33 333 49 382 77 410 c 2
 120 452 l 2
 120 453 l 2
 135 468 155 477 176 477 c 0
 186 477 195 472 204 463 c 2
 216 451 l 2
 229 438 240 417 248 398 c 1
 250 402 252 405 254 408 c 2
 253 409 l 1
 253 409 316 485 330 557 c 1
 49 573 l 1
 24 548 l 1
 13 559 l 1
 33 584 l 1
 76 627 l 1
 329 612 l 1
 319 649 293 684 293 684 c 2
 336 727 l 1
 347 716 l 1
 347 716 387 660 387 616 c 0
 387 614 387 611 387 609 c 2
 511 602 l 1
 536 627 l 1
 547 616 l 1
 527 591 l 1
 484 548 l 1
 374 554 l 1
 363 525 347 498 333 477 c 1
 334 477 335 477 336 477 c 0
 354 477 370 468 383 455 c 2
 395 444 l 2
 395 443 l 0
 414 424 427 395 427 366 c 0
 427 321 407 290 380 263 c 2
 338 221 l 2
 329 212 319 202 309 194 c 0
 291 166 287 133 287 91 c 0
 287 81 292 71 298 64 c 0
 307 56 316 52 316 52 c 2
 327 41 l 1
 315 28 l 1
 349 34 380 53 405 74 c 0
 410 80 413 84 413 84 c 1
 456 127 l 1
EndSplineSet
EndChar
StartChar: bracketwhiteleft
Encoding: 10214 10214 918
Width: 320
Flags: W
HStem: -177 54<107 172 188 264> 673 54<107 172 188 264>
VStem: 53 54<-123 673> 172 16<-123 673>
LayerCount: 2
Back
SplineSet
180 650 m 25
 180 -100 l 1049
280 700 m 25
 80 700 l 25
 80 -150 l 25
 280 -150 l 1033
EndSplineSet
Fore
SplineSet
307 716 m 1
 264 673 l 1
 188 673 l 1
 188 -123 l 1
 296 -123 l 1
 307 -134 l 1
 264 -177 l 1
 64 -177 l 1
 53 -166 l 1
 53 684 l 1
 96 727 l 1
 296 727 l 1
 307 716 l 1
172 673 m 1
 107 673 l 1
 107 -123 l 1
 172 -123 l 1
 172 673 l 1
EndSplineSet
EndChar
StartChar: rlslst
Encoding: 11804 11804 904
Width: 240
Flags: W
HStem: -177 304
VStem: 13 214
LayerCount: 2
Back
SplineSet
40 100 m 25
 200 -150 l 1049
EndSplineSet
Fore
SplineSet
56 127 m 1
 67 116 l 1
 227 -134 l 1
 184 -177 l 1
 173 -166 l 1
 13 84 l 1
 56 127 l 1
EndSplineSet
EndChar
StartChar: avslash
Encoding: 42811 42811 861
Width: 480
Flags: W
HStem: 198 54<159.094 213> 223 54<267 373> 407 20G<136 236> 407 20G<136 236 419 431>
VStem: 53 54<76 174> 213 54<96 198 277 351> 333 54<420.743 506.87> 373 54<96 223 277 394.86>
AnchorPoint: "abvmark" 240 500 basechar 0
AnchorPoint: "blwmark" 240 0 basechar 0
LayerCount: 2
Back
SplineSet
240 250 m 25
 440 250 l 1049
240 100 m 9
 140 0 l 1
 80 60 l 1
 80 190 l 1
 140 250 l 1
 140 250 155 225 200 225 c 3
 176.991563428 225 240 225 240 225 c 1033
404 550 m 17
 404 550 360 507 360 472 c 16
 360 423 400 380 400 380 c 9
 400 80 l 1
 320 0 l 25
 240 80 l 1
 240 375 l 17
 140 400 l 1
 80 340 l 1
 100 280 l 1033
EndSplineSet
Fore
SplineSet
431 566 m 1x6e
 424 559 387 520 387 488 c 0x6e
 387 439 427 396 427 396 c 1
 427 277 l 1
 456 277 l 1
 467 266 l 1
 427 226 l 1
 427 96 l 1
 304 -27 l 1
 214 63 l 1
 124 -27 l 1
 53 44 l 1
 53 174 l 1
 156 277 l 1x6d
 167 266 l 2
 175 260 191 253 213 252 c 1x8d
 213 351 l 1
 124 373 l 2
 124 373 109 358 107 356 c 2
 127 296 l 1
 84 253 l 1
 73 264 l 1
 53 324 l 1
 156 427 l 1
 256 402 l 1
 267 391 l 1
 267 277 l 1
 373 277 l 1
 373 364 l 1x6d
 373 364 333 407 333 456 c 0
 333 489 373 530 377 534 c 2
 419 576 l 2
 420 577 l 1
 431 566 l 1x6e
184 198 m 2x8c
 183 198 184 198 183 198 c 2
 184 198 l 2x8c
267 116 m 1
 267 96 l 1
 336 27 l 1
 373 64 l 1
 373 223 l 1
 267 223 l 1x4d
 267 116 l 1
213 84 m 1
 213 198 l 1
 179 198 l 2x8c
 151 199 136 210 129 217 c 0
 129 218 l 2
 124 223 l 1
 107 206 l 1
 107 76 l 1
 156 27 l 1
 213 84 l 1
EndSplineSet
EndChar
StartChar: a_y
Encoding: 42813 42813 346
Width: 480
Flags: W
HStem: -227 54<319.387 359.888> -177 54<237.117 279.574> 198 54<159.094 213> 407 20G<136 236 386 416> 407 20G<136 236 386 416>
VStem: 53 54<76 174> 213 54<96 198 252 351> 373 54<-159.543 42 64 374>
CounterMasks: 1 07
AnchorPoint: "abvmark" 240 500 basechar 0
LayerCount: 2
Back
SplineSet
240 100 m 9
 140 0 l 1
 80 60 l 1
 80 190 l 1
 140 250 l 1
 140 250 155 225 200 225 c 3
 176.991563428 225 240 225 240 225 c 1033
410 380 m 25
 390 400 l 1049
200 -200 m 17
 200 -200 230 -150 260 -150 c 8
 284 -150 315 -200 340 -200 c 24
 363 -200 400 -150 400 -150 c 1
 400 390 l 1025
400 80 m 9
 320 0 l 25
 240 80 l 1
 240 375 l 17
 140 400 l 1
 80 340 l 1
 100 280 l 1033
EndSplineSet
Fore
SplineSet
184 -227 m 1xa7
 173 -216 l 1
 173 -216 183 -199 197 -185 c 2
 239 -143 l 2
 249 -133 263 -123 276 -123 c 0x67
 300 -123 331 -173 356 -173 c 0
 361 -173 367 -170 372 -167 c 0
 373 -166 373 -166 373 -166 c 1
 373 42 l 1
 304 -27 l 1
 214 63 l 1
 124 -27 l 1
 53 44 l 1
 53 174 l 1
 156 277 l 1
 167 266 l 2
 175 260 191 253 213 252 c 1
 213 351 l 1
 124 373 l 2
 124 373 109 358 107 356 c 2
 127 296 l 1
 84 253 l 1
 73 264 l 1
 53 324 l 1
 156 427 l 1
 256 402 l 1
 267 391 l 1
 267 241 l 1
 267 116 l 1
 267 96 l 1
 336 27 l 1
 373 64 l 1
 373 374 l 1
 363 384 l 1
 406 427 l 1
 416 417 l 1
 427 406 l 1
 437 396 l 1
 427 386 l 1
 427 96 l 1
 427 -134 l 1
 427 -134 416 -149 403 -162 c 2
 361 -204 l 2
 349 -216 335 -227 324 -227 c 0xb7
 299 -227 268 -177 244 -177 c 0x67
 239 -177 234 -178 229 -181 c 0
 228 -183 227 -184 227 -184 c 1
 184 -227 l 1xa7
184 198 m 2
 183 198 184 198 183 198 c 2
 184 198 l 2
213 84 m 1
 213 198 l 1
 179 198 l 2
 151 199 136 210 129 217 c 0
 129 218 l 2
 124 223 l 1
 107 206 l 1
 107 76 l 1
 156 27 l 1
 213 84 l 1
EndSplineSet
LCarets2: 1 240 
Ligature2: "Historic ligatures-1" a y
EndChar
StartChar: kslash
Encoding: 42819 42819 863
Width: 320
Flags: W
HStem: 432 20G<226 256>
VStem: 53 54<26 213 237 599> 213 54<26 122 144 176 366 399>
AnchorPoint: "abvmark" 160 700 basechar 0
AnchorPoint: "blwmark" 160 0 basechar 0
LayerCount: 2
Back
SplineSet
300 220 m 25
 180 100 l 1049
230 425 m 25
 250 405 l 1049
70 625 m 25
 90 605 l 1049
70 625 m 25
 90 605 l 1049
80 200 m 1
 240 350 l 9
 240 415 l 1049
160 275 m 1
 240 200 l 1
 240 10 l 1025
230 20 m 25
 250 0 l 1049
70 20 m 25
 90 0 l 1049
70 625 m 25
 90 605 l 1049
80 615 m 9
 80 10 l 1049
EndSplineSet
Fore
SplineSet
203 409 m 1
 246 452 l 1
 256 442 l 1
 267 431 l 1
 277 421 l 1
 267 411 l 1
 267 366 l 1
 224 323 l 1
 189 290 l 1
 256 227 l 1
 267 216 l 1
 267 198 l 1
 316 247 l 1
 327 236 l 1
 267 176 l 1
 267 26 l 1
 277 16 l 1
 234 -27 l 1
 224 -17 l 1
 213 -6 l 1
 203 4 l 1
 213 14 l 1
 213 122 l 1
 164 73 l 1
 153 84 l 1
 213 144 l 1
 213 184 l 1
 144 248 l 1
 107 213 l 1
 107 26 l 1
 117 16 l 1
 74 -27 l 1
 64 -17 l 1
 53 -6 l 1
 43 4 l 1
 53 14 l 1
 53 184 l 1
 53 599 l 1
 43 609 l 1
 86 652 l 1
 96 642 l 1
 107 631 l 1
 117 621 l 1
 107 611 l 1
 107 237 l 1
 213 337 l 1
 213 399 l 1
 203 409 l 1
EndSplineSet
EndChar
StartChar: psquirrel
Encoding: 42837 42837 870
Width: 400
Flags: W
HStem: -177 21G<133 164> 23 54<51 131.539> 407 20G<16 47 146 176 236 276> 407 20G<16 47 146 176 236 276>
VStem: 33 54<119.585 338.438> 133 54<-134 2 73 336 358 374> 293 54<96 304>
AnchorPoint: "abvmark" 240 500 basechar 0
LayerCount: 2
Back
SplineSet
160 320 m 25
 240 400 l 1
 320 320 l 25
 320 80 l 1
 240 0 l 1
 240 0 238 50 20 50 c 1
 20 50 60 156 60 200 c 3
 60 332 20 400 20 400 c 1033
150 400 m 25
 170 380 l 1049
160 390 m 1
 160 -150 l 1025
EndSplineSet
Fore
SplineSet
123 384 m 1xee
 166 427 l 1
 176 417 l 1
 187 406 l 1
 197 396 l 1
 187 386 l 1
 187 358 l 1
 256 427 l 1
 347 336 l 1
 347 96 l 1
 224 -27 l 1
 213 -16 l 1
 213 -16 213 -13 211 -10 c 0
 205 -6 198 -2 187 2 c 1
 187 -134 l 1
 144 -177 l 1
 133 -166 l 1
 133 15 l 1
 102 20 60 23 4 23 c 1
 -7 34 l 1
 -7 34 33 140 33 184 c 0
 33 316 -7 384 -7 384 c 1
 36 427 l 1
 47 416 l 1
 47 416 87 348 87 216 c 0
 87 181 61 104 51 77 c 1
 83 77 110 75 133 73 c 1
 133 304 l 1
 133 374 l 1
 123 384 l 1xee
187 336 m 1
 187 64 l 1
 224 56 241 46 249 38 c 2
 258 29 l 1
 293 64 l 1
 293 304 l 1
 224 373 l 1
 187 336 l 1
EndSplineSet
EndChar
StartChar: zvisigoth
Encoding: 42851 42851 839
Width: 280
Flags: W
HStem: -227 54<122.588 159.857> -177 54<37.0729 84.6558> 407 20G<156 196> 407 20G<156 196>
VStem: 53 54<220 304> 173 54<-158.554 -20>
AnchorPoint: "abvmark" 160 500 basechar 0
LayerCount: 2
Back
SplineSet
240 320 m 9
 160 400 l 25
 80 320 l 1
 80 200 l 25
 160 150 l 25
 80 70 l 1
 200 0 l 1
 200 -150 l 1
 200 -150 162 -200 140 -200 c 0
 114 -200 97 -150 60 -150 c 16
 30 -150 0 -200 0 -200 c 1025
EndSplineSet
Fore
SplineSet
267 336 m 1xac
 224 293 l 1
 144 373 l 1
 107 336 l 1
 107 220 l 1
 176 177 l 1
 187 166 l 1
 110 89 l 1
 216 27 l 1
 227 16 l 1
 227 -134 l 1
 227 -134 216 -148 203 -161 c 2
 161 -204 l 2
 149 -216 134 -227 124 -227 c 0xac
 114 -227 107 -220 98 -211 c 2
 87 -200 l 2
 86 -200 l 0
 84 -198 81 -195 80 -194 c 0
 70 -184 59 -177 44 -177 c 0x4c
 39 -177 33 -179 29 -181 c 0
 28 -183 27 -184 27 -184 c 1
 -16 -227 l 1x8c
 -27 -216 l 2
 -27 -216 -18 -200 -4 -186 c 2
 -3 -185 l 2
 39 -143 l 2
 49 -133 63 -123 76 -123 c 0x4c
 93 -123 105 -133 116 -144 c 0
 116 -145 l 2
 128 -156 l 2
 130 -158 132 -160 134 -162 c 0
 141 -168 148 -173 156 -173 c 0
 161 -173 165 -171 172 -167 c 0
 173 -166 l 1
 173 -20 l 1
 64 43 l 1
 53 54 l 1
 131 132 l 1
 64 173 l 1
 53 184 l 1
 53 304 l 1
 176 427 l 1
 267 336 l 1xac
EndSplineSet
EndChar
StartChar: vend
Encoding: 42857 42857 876
Width: 320
Flags: W
HStem: -177 21G<53 84> 407 20G<66 96 216 256> 407 20G<66 96 216 256>
VStem: 53 54<-134 -48 -26 6 28 374> 213 54<166 383.828>
AnchorPoint: "abvmark" 160 500 basechar 0
LayerCount: 2
Back
SplineSet
40 -50 m 9
 240 150 l 1
 240 380 l 25
 220 400 l 1025
70 400 m 25
 90 380 l 1049
80 390 m 1
 80 -150 l 1025
EndSplineSet
Fore
SplineSet
43 384 m 1xd8
 86 427 l 1
 96 417 l 1
 107 406 l 1
 117 396 l 1
 107 386 l 1
 107 28 l 1
 213 134 l 1
 213 364 l 2
 213 368 207 370 204 373 c 2
 193 384 l 1
 236 427 l 1
 267 396 l 1
 267 166 l 1
 107 6 l 1
 107 -134 l 1
 64 -177 l 1
 53 -166 l 1
 53 -48 l 1
 24 -77 l 1
 13 -66 l 1
 53 -26 l 1
 53 374 l 1
 43 384 l 1xd8
EndSplineSet
EndChar
StartChar: tum
Encoding: 42871 42871 728
Width: 480
Flags: W
HStem: -177 21G<213 225> 323 54<134.645 333> 407 20G<36 73 438 467> 407 20G<36 73 96 127 316 368 438 467>
VStem: 73 54<32.437 339 419 534> 333 54<71.1498 328 387 480>
LayerCount: 2
Back
SplineSet
40 400 m 1049,0,0
100 550 m 1,0,0
 100 40 l 1,0,0
 140 0 l 1,0,0
 220 80 l 1025,0,0
320 525 m 1,0,0
 360 500 l 1,0,0
 360 500 360 406 360 250 c 3,0,0
 360 -37 240 -150 240 -150 c 1025,0,0
440 400 m 1,0,0
 440 400 414 350 280 350 c 3,0,0
 138 350 40 400 40 400 c 1025,0,0
EndSplineSet
Fore
SplineSet
456 427 m 1xec
 467 416 l 1
 467 416 465 412 460 407 c 2
 418 365 l 2
 417 364 l 0
 411 358 402 351 387 344 c 1
 387 266 l 2
 387 -8 278 -124 268 -134 c 2
 225 -176 l 2
 224 -177 l 1
 213 -166 l 1
 215 -164 l 2
 229 -149 333 -33 333 234 c 2
 333 328 l 1
 314 325 291 323 264 323 c 0
 211 323 165 330 127 339 c 1
 127 56 l 2
 127 41 148 35 156 27 c 1
 236 107 l 1
 247 96 l 1
 124 -27 l 1
 73 24 l 1
 73 354 l 1
 42 364 24 373 24 373 c 2
 13 384 l 1
 56 427 l 1
 56 427 62 424 73 419 c 1
 73 534 l 1
 116 577 l 1
 127 566 l 1
 127 401 l 1
 169 389 228 377 296 377 c 0
 310 377 322 377 333 378 c 1
 333 480 l 1
 304 498 l 1
 293 509 l 1
 336 552 l 1
 376 527 l 1
 387 516 l 1
 387 387 l 1
 411 393 427 402 438 410 c 2
 456 427 l 1xec
EndSplineSet
EndChar
StartChar: um
Encoding: 42872 42872 958
Width: 320
Flags: W
HStem: -177 21G<53 84> 333 54<192.084 249.21> 407 20G<156 187 290 307> 407 20G<156 187 290 307>
VStem: 53 54<-134 0.718754 261 304> 213 54<96 139>
LayerCount: 2
Back
SplineSet
80 -150 m 25
 80 -92 80 -58 80 0 c 3
 80 141 280 400 280 400 c 1
 280 400 242 360 220 360 c 0
 185 360 160 400 160 400 c 9
 80 320 l 1
 80 240 l 1
 240 160 l 1
 240 80 l 1
 160 0 l 17
 160 0 128 40 100 40 c 24
 72 40 40 0 40 0 c 1025
EndSplineSet
Fore
SplineSet
153 238 m 1xcc
 176 276 202 312 219 337 c 1
 213 334 208 333 204 333 c 0
 185 333 170 344 159 355 c 2
 148 367 l 2
 146 369 144 371 143 372 c 2
 107 336 l 1
 107 261 l 1
 153 238 l 1xcc
114 67 m 1
 116 67 l 0
 117 67 119 67 120 67 c 0
 136 65 153 50 164 39 c 0
 176 27 l 1
 213 64 l 1
 213 139 l 1
 152 169 l 1
 135 134 122 99 114 67 c 1
54 1 m 1
 52 -1 48 -3 47 -4 c 2
 24 -27 l 1
 13 -16 l 1
 13 -16 17 -11 24 -4 c 2
 59 31 l 1
 69 73 88 119 112 165 c 0
 115 171 119 178 122 184 c 1
 64 213 l 1
 53 224 l 1
 53 304 l 1
 176 427 l 1
 187 416 l 2
 187 416 190 411 196 404 c 0
 206 396 220 387 236 387 c 0
 253 387 279 410 290 421 c 2
 296 427 l 1xec
 307 416 l 1
 307 416 246 337 191 242 c 0
 188 236 184 230 181 224 c 1
 256 187 l 1
 267 176 l 1
 267 96 l 1
 144 -27 l 1
 133 -16 l 1
 133 -16 131 -13 128 -9 c 0
 122 -3 115 2 107 6 c 1
 107 -134 l 1
 64 -177 l 1
 53 -166 l 1
 53 -16 l 2
 53 -11 53 -5 54 1 c 1
EndSplineSet
EndChar
StartChar: q_etfin
Encoding: 59583 59583 966
Width: 480
Flags: W
HStem: 407 20G<156 187 235.31 267 296 336> 407 20G<156 187 235.31 267 296 336>
VStem: 53 54<96 304> 213 54<-132 42 64 152 178 356> 373 54<-24 81>
CounterMasks: 1 38
LayerCount: 2
Back
SplineSet
240 80 m 9
 160 0 l 25
 80 80 l 25
 80 320 l 25
 160 400 l 1
 160 400 180 368 200 368 c 24
 220 368 240 400 240 400 c 9
 240 -150 l 1049
240 340 m 25
 300 400 l 1
 400 300 l 1
 280 180 l 1
 400 100 l 1
 400 -40 l 1
 200 -200 l 1025
EndSplineSet
Fore
SplineSet
213 42 m 1xb8
 144 -27 l 1
 53 64 l 1
 53 304 l 1
 176 427 l 1
 187 416 l 1
 187 416 191 410 196 404 c 0
 203 399 209 395 216 395 c 0
 220 395 223 397 226 398 c 2
 256 427 l 1
 267 416 l 1
 267 378 l 1
 316 427 l 1
 427 316 l 1
 309 198 l 1
 416 127 l 1
 427 116 l 1
 427 -24 l 1
 384 -67 l 1
 184 -227 l 1
 173 -216 l 1
 216 -173 l 1
 218 -171 l 1
 213 -166 l 1
 213 42 l 1xb8
213 324 m 1
 213 358 l 1
 210 355 l 2
 203 348 193 341 184 341 c 0
 175 341 166 348 159 355 c 2
 148 366 l 2
 146 368 145 370 143 372 c 2
 107 336 l 1
 107 96 l 1
 176 27 l 1
 213 64 l 1
 213 324 l 1
267 -132 m 1
 373 -47 l 1
 373 81 l 1
 267 152 l 1
 267 -132 l 1
267 178 m 1
 373 284 l 1
 284 373 l 1
 267 356 l 1
 267 178 l 1
EndSplineSet
LCarets2: 1 240 
Ligature2: "Ligatures-1" q etfin
EndChar
StartChar: g_p
Encoding: 60114 60114 501
Width: 480
Flags: W
HStem: -227 54<159.207 202.919> -177 54<77.1172 120.819> 341 54<167.547 218> 407 20G<156 187 235.31 267 316 356> 407 20G<156 187 235.31 267 316 356>
VStem: 53 54<96 304> 213 54<-134 -1 84 336> 373 54<96 336>
CounterMasks: 1 07
LayerCount: 2
Back
SplineSet
200 0 m 1
 200 0 237 40 260 40 c 0
 283 40 320 0 320 0 c 9
 400 80 l 1
 400 320 l 25
 320 400 l 1
 240 320 l 1049
40 -200 m 17
 40 -200 70 -150 100 -150 c 8
 137 -150 143 -200 180 -200 c 24
 210 -200 240 -150 240 -150 c 9
 240 400 l 1
 240 400 220 368 200 368 c 24
 180 368 160 400 160 400 c 1
 80 320 l 25
 80 80 l 25
 140 0 l 1
 240 100 l 1049
240 -150 m 9
 280 -200 l 1025
EndSplineSet
Fore
SplineSet
213 358 m 1x27
 210 355 l 2
 209 354 l 0
 201 347 193 341 184 341 c 0
 175 341 166 348 159 355 c 2
 148 366 l 1
 147 367 l 0
 145 369 144 371 143 372 c 2
 107 336 l 1
 107 96 l 1
 157 28 l 1
 213 84 l 1
 213 304 l 1
 213 358 l 1x27
213 62 m 1
 124 -27 l 1
 113 -16 l 1
 53 64 l 1
 53 304 l 1
 176 427 l 1
 187 416 l 1
 187 416 191 410 196 404 c 0
 202 399 209 395 216 395 c 0
 220 395 222 396 226 398 c 2
 256 427 l 1
 267 416 l 1
 267 358 l 1
 336 427 l 1
 427 336 l 1
 427 96 l 1
 304 -27 l 1
 295 -18 l 2
 288 -11 278 -2 267 5 c 1
 267 -134 l 1
 307 -184 l 1
 264 -227 l 1
 253 -216 l 1
 226 -182 l 1
 201 -207 l 2
 191 -217 177 -227 164 -227 c 0xb7
 151 -227 142 -221 134 -213 c 2
 123 -201 l 2
 118 -196 114 -191 109 -186 c 0
 103 -181 94 -177 84 -177 c 0x67
 79 -177 74 -178 69 -181 c 0
 68 -183 67 -184 67 -184 c 1
 24 -227 l 1xa7
 13 -216 l 1
 13 -216 23 -199 37 -185 c 2
 79 -143 l 2
 89 -133 103 -123 116 -123 c 0x67
 129 -123 138 -129 146 -137 c 2
 157 -149 l 2
 162 -154 167 -159 171 -164 c 0
 178 -170 186 -173 196 -173 c 0xa7
 201 -173 207 -171 211 -169 c 0
 212 -167 213 -166 213 -166 c 1
 213 -1 l 1
 206 -6 199 -13 194 -18 c 2
 184 -27 l 1
 173 -16 l 1
 173 -16 175 -14 178 -11 c 2
 213 25 l 1
 213 62 l 1
267 336 m 1
 267 65 l 2
 270 66 273 67 276 67 c 0
 294 67 321 41 331 31 c 2
 336 27 l 1
 373 64 l 1
 373 304 l 2
 373 342 324 353 304 373 c 1
 267 336 l 1
EndSplineSet
LCarets2: 1 240 
Ligature2: "Historic ligatures-1" g p
EndChar
StartChar: longs_p
Encoding: 60325 60325 709
Width: 520
Flags: W
HStem: -227 54<19.2066 62.9271> -177 54<-62.8828 -19.1811> 407 20G<356 396> 407 20G<356 396> 583 54<223.698 353.166>
VStem: 73 54<-162.682 554> 253 54<-134 -5 53.1049 336> 413 54<96 336>
LayerCount: 2
Back
SplineSet
200 0 m 1
 200 0 237 40 260 40 c 11
 302 40 360 0 360 0 c 9
 440 80 l 1
 440 320 l 25
 360 400 l 1
 280 320 l 1049
280 380 m 1
 280 -150 l 1025
-100 -200 m 17
 -100 -200 -70 -150 -40 -150 c 8
 -3 -150 3 -200 40 -200 c 24
 70 -200 100 -150 100 -150 c 1
 100 570 l 1
 180 650 l 17
 180 650 216 610 320 610 c 3
 348 610 381 650 381 650 c 9
 240 420 l 9
 300 360 l 1025
EndSplineSet
Fore
SplineSet
-116 -227 m 1x8f
 -127 -216 l 1
 -127 -216 -117 -199 -103 -185 c 2
 -61 -143 l 2
 -51 -133 -37 -123 -24 -123 c 0x4f
 -11 -123 -2 -129 6 -137 c 2
 17 -149 l 2
 22 -154 27 -159 31 -164 c 0
 38 -170 46 -173 56 -173 c 0
 61 -173 67 -171 71 -169 c 0
 72 -167 73 -166 73 -166 c 1
 73 554 l 1
 196 677 l 1
 197 676 l 2
 204 669 243 637 336 637 c 0
 350 637 366 647 377 657 c 2
 397 677 l 1
 408 666 l 1
 267 436 l 2
 259 423 274 411 290 402 c 1
 296 407 l 1x9f
 307 396 l 1
 307 392 l 1
 311 390 315 388 316 387 c 2
 326 377 l 1
 376 427 l 1
 467 336 l 1
 467 96 l 1
 344 -27 l 1
 344 -27 328 -16 307 -5 c 1
 307 -134 l 1
 264 -177 l 1x6f
 253 -166 l 1
 253 13 l 2
 250 13 247 13 244 13 c 0
 228 13 207 -6 194 -18 c 2
 184 -27 l 1
 173 -16 l 1
 173 -16 175 -14 178 -11 c 2
 220 31 l 2
 227 38 240 51 253 59 c 1
 253 304 l 1
 253 364 l 1
 213 404 l 1
 327 590 l 1
 320 586 311 583 304 583 c 0
 208 583 170 618 165 623 c 2
 164 623 l 1
 127 586 l 1
 127 -134 l 2
 127 -134 118 -150 104 -164 c 2
 103 -165 l 2
 61 -207 l 2
 51 -217 37 -227 24 -227 c 0x8f
 11 -227 2 -221 -6 -213 c 2
 -17 -201 l 2
 -22 -196 -26 -191 -31 -186 c 0
 -37 -181 -46 -177 -56 -177 c 0x4f
 -61 -177 -66 -178 -71 -181 c 0
 -72 -183 -73 -184 -73 -184 c 1
 -116 -227 l 1x8f
307 336 m 1
 307 61 l 1
 342 50 376 27 376 27 c 1
 376 27 409 60 413 64 c 2
 413 304 l 2
 413 342 364 353 344 373 c 1
 307 336 l 1
EndSplineSet
LCarets2: 1 240 
Ligature2: "Ligatures-1" longs p
EndChar
StartChar: c_t
Encoding: 61125 61125 335
Width: 539
Flags: W
HStem: 323 54<225.342 353> 338 46<407 448.045> 407 20G<156 240 488 507> 427 130G<156 240 376 407 488 507>
VStem: 53 54<96 284> 353 54<32.437 326 384 534>
LayerCount: 2
Back
SplineSet
240 80 m 9
 160 0 l 25
 80 80 l 25
 80 300 l 1
 160 400 l 17
 160 400 217 350 320 350 c 3
 442 350 480 400 480 400 c 1033
380 550 m 1
 380 40 l 1
 420 0 l 1
 500 80 l 1025
EndSplineSet
Fore
SplineSet
396 577 m 1xac
 407 566 l 1
 407 384 l 1
 452 393 477 409 488 419 c 2
 496 427 l 1
 507 416 l 1
 507 416 506 414 504 412 c 2
 461 370 l 2
 455 364 438 349 407 338 c 1x6c
 407 56 l 2
 407 41 428 35 436 27 c 1
 516 107 l 1
 527 96 l 1
 404 -27 l 1
 353 24 l 1
 353 326 l 1
 339 324 322 323 304 323 c 0x8c
 219 323 166 357 150 369 c 1
 107 316 l 1
 107 96 l 1
 176 27 l 1
 256 107 l 1
 267 96 l 1
 144 -27 l 1
 53 64 l 1
 53 284 l 1
 133 384 l 1x4c
 176 427 l 1
 176 427 233 377 336 377 c 0
 342 377 347 377 353 377 c 1
 353 534 l 1
 396 577 l 1xac
EndSplineSet
LCarets2: 1 280 
Ligature2: "Ligatures-1" c t
EndChar
StartChar: f_t_y
Encoding: 61136 61136 356
Width: 680
GlyphClass: 3
Flags: W
HStem: -227 54<19.2066 62.9271 519.387 559.888> -177 54<-62.8828 -19.1811 437.117 479.574> 373 54<56 73 127 233 287 413> 407 20G<586 616>
VStem: 73 54<-162.682 373 427 554> 233 54<32.437 373 427 544.875> 413 54<96 373> 573 54<-159.543 42 64 374>
LayerCount: 2
Back
SplineSet
610 380 m 25
 590 400 l 1049
400 -200 m 17
 400 -200 430 -150 460 -150 c 8
 484 -150 515 -200 540 -200 c 24
 563 -200 600 -150 600 -150 c 1
 600 390 l 1025
600 80 m 9
 520 0 l 25
 440 80 l 1
 440 390 l 1049
-100 -200 m 1
 -100 -200 -70 -150 -40 -150 c 8
 -3 -150 3 -200 40 -200 c 24
 70 -200 100 -150 100 -150 c 1
 100 570 l 1
 180 650 l 1
 180 650 225 550 260 550 c 1
 260 40 l 1
 300 0 l 1
 380 80 l 1025
40 400 m 1
 430 400 l 25
 450 380 l 1025
EndSplineSet
Fore
SplineSet
13 384 m 1xaf
 56 427 l 1
 73 427 l 1
 73 554 l 1
 196 677 l 1
 207 666 l 1
 207 666 230 615 255 586 c 0
 262 580 269 577 276 577 c 1
 287 566 l 1
 287 427 l 1xaf
 446 427 l 1
 456 417 l 1
 477 396 l 1
 467 386 l 1
 467 96 l 1
 536 27 l 1
 573 64 l 1
 573 374 l 1
 563 384 l 1
 606 427 l 1
 616 417 l 1
 637 396 l 1
 627 386 l 1
 627 96 l 1
 627 -134 l 1
 627 -134 616 -149 603 -162 c 2
 561 -204 l 2
 549 -216 535 -227 524 -227 c 0x9f
 499 -227 468 -177 444 -177 c 0x4f
 439 -177 434 -178 429 -181 c 0
 428 -183 427 -184 427 -184 c 1
 384 -227 l 1x8f
 373 -216 l 1
 373 -216 383 -199 397 -185 c 2
 439 -143 l 2
 449 -133 463 -123 476 -123 c 0x4f
 500 -123 531 -173 556 -173 c 0
 561 -173 567 -170 572 -167 c 0
 573 -166 573 -166 573 -166 c 1
 573 42 l 1
 504 -27 l 1
 413 64 l 1
 413 373 l 1
 287 373 l 1
 287 56 l 2
 287 41 308 35 316 27 c 1
 396 107 l 1
 407 96 l 1
 284 -27 l 1
 233 24 l 1
 233 373 l 1
 127 373 l 1
 127 -134 l 2
 127 -134 118 -150 104 -164 c 2
 103 -165 l 2
 61 -207 l 2
 51 -217 37 -227 24 -227 c 0xaf
 11 -227 2 -221 -6 -213 c 2
 -17 -201 l 2
 -22 -196 -26 -191 -31 -186 c 0
 -37 -181 -46 -177 -56 -177 c 0x4f
 -61 -177 -66 -178 -71 -181 c 0
 -72 -183 -73 -184 -73 -184 c 1
 -116 -227 l 1x8f
 -127 -216 l 1
 -127 -216 -117 -199 -103 -185 c 2
 -61 -143 l 2
 -51 -133 -37 -123 -24 -123 c 0x4f
 -11 -123 -2 -129 6 -137 c 2
 17 -149 l 2
 22 -154 27 -159 31 -164 c 0
 38 -170 46 -173 56 -173 c 0
 61 -173 67 -171 71 -169 c 0
 72 -167 73 -166 73 -166 c 1
 73 373 l 1
 24 373 l 1
 13 384 l 1xaf
127 427 m 1
 233 427 l 1
 233 526 l 1
 228 528 224 532 219 537 c 0
 218 538 l 2
 207 549 l 2
 188 568 171 600 161 619 c 1
 127 586 l 1
 127 427 l 1
EndSplineSet
LCarets2: 2 240 400 
Ligature2: "Ligatures-1" f t y
EndChar
StartChar: g_o
Encoding: 61150 61150 500
Width: 480
Flags: W
HStem: -227 54<159.207 202.927> -177 54<77.1172 120.819> 341 54<167.547 218> 407 20G<156 187 235.31 267 316 356> 407 20G<156 187 235.31 267 316 356>
VStem: 53 54<64 304> 213 54<-162.682 11 64 336> 373 54<96 336>
CounterMasks: 1 07
LayerCount: 2
Back
SplineSet
320 400 m 25
 240 320 l 25
 240 80 l 25
 320 0 l 25
 400 80 l 25
 400 320 l 25
 320 400 l 25
40 -200 m 17
 40 -200 70 -150 100 -150 c 8
 137 -150 143 -200 180 -200 c 24
 210 -200 240 -150 240 -150 c 9
 240 400 l 1
 240 400 220 368 200 368 c 24
 180 368 160 400 160 400 c 1
 80 320 l 25
 80 80 l 25
 160 0 l 25
 240 80 l 1041
EndSplineSet
Fore
SplineSet
213 358 m 1x27
 210 355 l 2
 209 354 l 0
 201 347 193 341 184 341 c 0
 175 341 166 348 159 355 c 2
 148 366 l 1
 147 367 l 0
 145 369 144 371 143 372 c 2
 107 336 l 1
 107 96 l 2
 107 58 156 47 176 27 c 1
 213 64 l 1
 213 304 l 1
 213 358 l 1x27
213 42 m 1
 144 -27 l 1
 53 64 l 1
 53 304 l 1
 176 427 l 1
 187 416 l 1
 187 416 191 410 196 404 c 0
 202 399 209 395 216 395 c 0
 220 395 222 396 226 398 c 2
 256 427 l 1
 267 416 l 1
 267 358 l 1
 336 427 l 1
 427 336 l 1
 427 96 l 1
 304 -27 l 1
 267 11 l 1
 267 -134 l 2
 267 -134 258 -150 244 -164 c 2
 243 -165 l 2
 201 -207 l 2
 191 -217 177 -227 164 -227 c 0xb7
 151 -227 142 -221 134 -213 c 2
 123 -201 l 2
 118 -196 114 -191 109 -186 c 0
 103 -181 94 -177 84 -177 c 0x67
 79 -177 74 -178 69 -181 c 0
 68 -183 67 -184 67 -184 c 1
 24 -227 l 1xa7
 13 -216 l 1
 13 -216 23 -199 37 -185 c 2
 79 -143 l 2
 89 -133 103 -123 116 -123 c 0x67
 129 -123 138 -129 146 -137 c 2
 157 -149 l 2
 162 -154 167 -159 171 -164 c 0
 178 -170 186 -173 196 -173 c 0xa7
 201 -173 207 -171 211 -169 c 0
 212 -167 213 -166 213 -166 c 1
 213 42 l 1
267 96 m 2
 267 58 316 47 336 27 c 1
 373 64 l 1
 373 304 l 2
 373 342 324 353 304 373 c 1
 267 336 l 1
 267 96 l 2
EndSplineSet
LCarets2: 1 240 
Ligature2: "Historic ligatures-1" g o
EndChar
StartChar: a_thorn
Encoding: 61356 61356 347
Width: 480
Flags: W
HStem: -177 21G<213 244> 198 54<159.094 213> 407 20G<136 213 316 356> 407 20G<136 213 316 356>
VStem: 53 54<76 174> 213 54<-134 -1 84 198 252 336 412 599> 373 54<96 336>
CounterMasks: 1 0e
LayerCount: 2
Back
SplineSet
100 280 m 17
 80 340 l 1
 140 400 l 1
 240 375 l 1
 240 100 l 9
 140 0 l 1
 80 60 l 1
 80 190 l 1
 140 250 l 1
 140 250 155 225 200 225 c 3
 176.991563428 225 240 225 240 225 c 1033
200 0 m 1
 200 0 237 40 260 40 c 0
 283 40 320 0 320 0 c 9
 400 80 l 1
 400 320 l 25
 320 400 l 1
 240 320 l 1049
230 625 m 25
 250 605 l 1049
240 615 m 1
 240 -150 l 1025
EndSplineSet
Fore
SplineSet
203 609 m 1xee
 246 652 l 1
 256 642 l 1
 267 631 l 1
 277 621 l 1
 267 611 l 1
 267 391 l 1
 267 358 l 1
 336 427 l 1
 427 336 l 1
 427 96 l 1
 304 -27 l 1
 295 -18 l 2
 288 -11 278 -2 267 5 c 1
 267 -134 l 1
 224 -177 l 1
 213 -166 l 1
 213 -1 l 1
 206 -6 199 -13 194 -18 c 2
 184 -27 l 1
 173 -16 l 1
 173 -16 175 -14 178 -11 c 2
 213 25 l 1
 213 62 l 1
 124 -27 l 1
 53 44 l 1
 53 174 l 1
 156 277 l 1
 167 266 l 2
 176 259 190 253 213 252 c 1
 213 304 l 1
 213 351 l 1
 124 373 l 1
 107 356 l 1
 127 296 l 1
 84 253 l 1
 73 264 l 1
 53 324 l 1
 156 427 l 1
 213 412 l 1
 213 599 l 1
 203 609 l 1xee
184 198 m 2
 183 198 184 198 183 198 c 2
 184 198 l 2
267 65 m 2
 270 66 273 67 276 67 c 0
 294 67 321 41 331 31 c 2
 336 27 l 1
 373 64 l 1
 373 304 l 2
 373 342 324 353 304 373 c 1
 267 336 l 1
 267 116 l 1
 267 65 l 2
213 84 m 1
 213 198 l 1
 179 198 l 2
 151 199 136 210 129 217 c 0
 129 218 l 2
 124 223 l 1
 107 206 l 1
 107 76 l 1
 156 27 l 1
 213 84 l 1
EndSplineSet
LCarets2: 1 240 
Ligature2: "Historic ligatures-1" a thorn
EndChar
StartChar: longs_k
Encoding: 62716 62716 708
Width: 520
Flags: W
HStem: -227 54<19.3873 59.8878> -177 54<-62.8828 -20.4265> 432 20G<426 456>
VStem: 73 54<-159.543 554> 253 54<26 213 237 577.633> 413 54<26 184 366 399>
LayerCount: 2
Back
SplineSet
430 425 m 25
 450 405 l 1049
280 200 m 1
 440 350 l 9
 440 415 l 1049
360 275 m 1
 440 200 l 1
 440 10 l 1025
430 20 m 25
 450 0 l 1049
270 20 m 25
 290 0 l 1049
-100 -200 m 17
 -100 -200 -70 -150 -40 -150 c 8
 -16 -150 15 -200 40 -200 c 24
 63 -200 100 -150 100 -150 c 1
 100 570 l 1
 180 650 l 1
 180 650 213 600 280 600 c 9
 280 10 l 1025
EndSplineSet
Fore
SplineSet
-116 -227 m 1xbc
 -127 -216 l 1
 -127 -216 -117 -199 -103 -185 c 2
 -61 -143 l 2
 -51 -133 -37 -123 -24 -123 c 0x7c
 0 -123 31 -173 56 -173 c 0
 61 -173 67 -170 72 -167 c 0
 73 -166 73 -166 73 -166 c 1
 73 554 l 1
 196 677 l 1
 207 666 l 1
 207 666 209 662 213 658 c 0
 229 644 257 627 296 627 c 1
 307 616 l 1
 307 237 l 1
 413 337 l 1
 413 399 l 1
 403 409 l 1
 446 452 l 1
 456 442 l 1
 467 431 l 1
 477 421 l 1
 467 411 l 1
 467 366 l 1
 424 323 l 1
 389 290 l 1
 456 227 l 1
 467 216 l 1
 467 26 l 1
 477 16 l 1
 434 -27 l 1
 424 -17 l 1
 413 -6 l 1
 403 4 l 1
 413 14 l 1
 413 184 l 1
 344 248 l 1
 307 213 l 1
 307 26 l 1
 317 16 l 1
 274 -27 l 1
 264 -17 l 1
 253 -6 l 1
 243 4 l 1
 253 14 l 1
 253 184 l 1
 253 574 l 1
 215 577 190 596 176 610 c 2
 164 621 l 2
 163 622 l 2
 127 586 l 1
 127 -134 l 1
 127 -134 116 -149 103 -162 c 2
 61 -204 l 2
 49 -216 35 -227 24 -227 c 0xbc
 -1 -227 -32 -177 -56 -177 c 0x7c
 -61 -177 -66 -178 -71 -181 c 0
 -72 -183 -73 -184 -73 -184 c 1
 -116 -227 l 1xbc
EndSplineSet
LCarets2: 1 240 
Ligature2: "Ligatures-1" longs k
EndChar
StartChar: longs_s
Encoding: 62717 62717 710
Width: 480
Flags: W
HStem: -227 54<19.2066 62.9271> -177 54<-62.8828 -19.1811> 13 54<232.875 287.873> 361 26<398.236 414> 407 20G<316 347 436 467> 407 20G<316 347 436 467> 583 54<212.127 267.076>
VStem: 73 54<-162.682 554> 213 54<261 304> 373 54<96 139>
LayerCount: 2
Back
SplineSet
-100 -200 m 17
 -100 -200 -70 -150 -40 -150 c 8
 -3 -150 3 -200 40 -200 c 24
 70 -200 100 -150 100 -150 c 1
 100 570 l 1
 180 650 l 17
 180 650 212 610 240 610 c 24
 268 610 300 650 301 650 c 1033
440 400 m 17
 440 400 408 360 380 360 c 24
 352 360 320 400 320 400 c 9
 240 320 l 1
 240 240 l 1
 400 160 l 1
 400 80 l 1
 320 0 l 17
 320 0 288 40 260 40 c 24
 232 40 200 0 200 0 c 1025
EndSplineSet
Fore
SplineSet
456 427 m 1x3bc0
 467 416 l 1
 467 416 463 411 456 404 c 2
 414 361 l 2
 413 361 l 0
 401 349 381 333 364 333 c 0
 346 333 327 349 315 361 c 2
 304 372 l 2
 304 372 271 340 267 336 c 2
 267 261 l 1
 416 187 l 1
 427 176 l 1
 427 96 l 1
 304 -27 l 1
 293 -16 l 1
 293 -16 291 -13 288 -9 c 0
 276 2 259 13 244 13 c 0
 231 13 217 4 207 -4 c 2
 184 -27 l 1
 173 -16 l 1
 173 -16 177 -11 184 -4 c 2
 226 39 l 2
 238 51 258 67 276 67 c 0
 294 67 312 51 324 39 c 0
 336 27 l 1
 373 64 l 1
 373 139 l 1
 224 213 l 1
 213 224 l 1
 213 304 l 1
 336 427 l 1
 347 416 l 2
 347 416 349 413 352 409 c 0
 364 398 381 387 396 387 c 0
 409 387 422 395 433 404 c 2
 456 427 l 1x3bc0
-116 -227 m 1xb3c0
 -127 -216 l 1
 -127 -216 -117 -199 -103 -185 c 2
 -61 -143 l 2
 -51 -133 -37 -123 -24 -123 c 0x73c0
 -11 -123 -2 -129 6 -137 c 2
 17 -149 l 2
 22 -154 27 -159 31 -164 c 0
 38 -170 46 -173 56 -173 c 0
 61 -173 67 -171 71 -169 c 0
 72 -167 73 -166 73 -166 c 1
 73 554 l 1
 196 677 l 1
 207 666 l 1
 207 666 209 663 212 659 c 0
 224 648 241 637 256 637 c 0
 271 637 286 649 298 659 c 2
 316 676 l 2
 316 677 l 0
 317 677 l 2
 328 666 l 1
 326 663 l 2
 324 661 321 658 318 655 c 2
 276 613 l 2
 264 601 243 583 224 583 c 0
 206 583 188 599 176 611 c 0
 164 623 l 1
 127 586 l 1
 127 -134 l 2
 127 -134 118 -150 104 -164 c 2
 103 -165 l 2
 61 -207 l 2
 51 -217 37 -227 24 -227 c 0xb3c0
 11 -227 2 -221 -6 -213 c 2
 -17 -201 l 2
 -22 -196 -26 -191 -31 -186 c 0
 -37 -181 -46 -177 -56 -177 c 0x73c0
 -61 -177 -66 -178 -71 -181 c 0
 -72 -183 -73 -184 -73 -184 c 1
 -116 -227 l 1xb3c0
EndSplineSet
LCarets2: 1 240 
Ligature2: "Ligatures-1" longs s
EndChar
StartChar: f_l
Encoding: 64258 64258 323
Width: 360
Flags: W
HStem: -227 54<19.3873 59.8878> -177 54<-62.8828 -20.4265> 373 54<56 73 127 224> 598 54<204.576 253>
VStem: 73 54<-159.543 373 427 554> 253 54<28 402 427 598>
LayerCount: 2
Back
SplineSet
-100 -200 m 17
 -100 -200 -70 -150 -40 -150 c 8
 -16 -150 15 -200 40 -200 c 24
 63 -200 100 -150 100 -150 c 1
 100 570 l 1
 180 650 l 1
 180 650 246 625 270 625 c 9
 290 605 l 1025
40 400 m 25
 240 400 l 1049
270 20 m 25
 290 0 l 25
 310 20 l 1049
280 615 m 9
 280 10 l 1049
EndSplineSet
Fore
SplineSet
296 642 m 1xbc
 307 631 l 1
 317 621 l 1
 307 611 l 1
 307 28 l 1
 326 47 l 1
 337 36 l 1
 274 -27 l 1
 264 -17 l 1
 253 -6 l 1
 243 4 l 1
 253 14 l 1
 253 402 l 1
 224 373 l 1
 127 373 l 1
 127 -134 l 1
 127 -134 116 -149 103 -162 c 2
 61 -204 l 2
 49 -216 35 -227 24 -227 c 0xbc
 -1 -227 -32 -177 -56 -177 c 0x7c
 -61 -177 -66 -178 -71 -181 c 0
 -72 -183 -73 -184 -73 -184 c 1
 -116 -227 l 1xbc
 -127 -216 l 1
 -127 -216 -117 -199 -103 -185 c 2
 -61 -143 l 2
 -51 -133 -37 -123 -24 -123 c 0x7c
 0 -123 31 -173 56 -173 c 0
 61 -173 67 -170 72 -167 c 0
 73 -166 73 -166 73 -166 c 1
 73 373 l 1
 24 373 l 1
 13 384 l 1
 56 427 l 1
 73 427 l 1
 73 554 l 1
 196 677 l 1
 196 677 262 652 286 652 c 1
 296 642 l 1xbc
253 427 m 1
 253 598 l 1
 228 599 164 623 164 623 c 1
 127 586 l 1
 127 427 l 1
 253 427 l 1
EndSplineSet
LCarets2: 1 240 
Ligature2: "Ligatures-1" f l
EndChar
StartChar: w.alt
Encoding: 65542 -1 784
Width: 480
Flags: W
HStem: 407 20G<66 96 226 256 376 416> 407 20G<66 96 226 256 376 416>
VStem: 53 54<64 374> 213 54<64 374> 373 54<96 383.828>
CounterMasks: 1 38
AnchorPoint: "abvmark" 240 500 basechar 0
AnchorPoint: "blwmark" 240 0 basechar 0
LayerCount: 2
Back
SplineSet
250 380 m 25
 230 400 l 1049
240 390 m 25
 240 80 l 1
 320 0 l 25
 400 80 l 1
 400 380 l 25
 380 400 l 1049
90 380 m 25
 70 400 l 1049
80 390 m 25
 80 80 l 1
 160 0 l 25
 240 80 l 1025
EndSplineSet
Fore
SplineSet
107 406 m 1xb8
 117 396 l 1
 107 386 l 1
 107 96 l 2
 107 58 156 47 176 27 c 1
 213 64 l 1
 213 374 l 1
 203 384 l 1
 246 427 l 1
 256 417 l 1
 261 411 l 1
 277 396 l 1
 267 386 l 1
 267 96 l 2
 267 58 316 47 336 27 c 1
 373 64 l 1
 373 364 l 2
 373 368 367 370 364 373 c 2
 353 384 l 1
 396 427 l 1
 427 396 l 1
 427 96 l 1
 304 -27 l 1
 224 53 l 1
 144 -27 l 1
 53 64 l 1
 53 374 l 1
 43 384 l 1
 86 427 l 1
 96 417 l 1
 107 406 l 1xb8
EndSplineSet
EndChar
